<svg xmlns="http://www.w3.org/2000/svg" xmlns:xlink="http://www.w3.org/1999/xlink" width="138.825" height="135.392" viewBox="0 0 138.825 135.392">
  <defs>
    <style>
      .cls-1, .cls-3 {
        fill: #fff;
      }

      .cls-1 {
        opacity: 0;
      }

      .cls-2 {
        fill: #c3e0fd;
      }

      .cls-4 {
        filter: url(#联合_6);
      }

      .cls-5 {
        filter: url(#联合_7-2);
      }

      .cls-6 {
        filter: url(#联合_7);
      }
    </style>
    <filter id="联合_7" x="0" y="0" width="121.813" height="82.999" filterUnits="userSpaceOnUse">
      <feOffset dy="3" input="SourceAlpha"/>
      <feGaussianBlur stdDeviation="3" result="blur"/>
      <feFlood flood-opacity="0.161"/>
      <feComposite operator="in" in2="blur"/>
      <feComposite in="SourceGraphic"/>
    </filter>
    <filter id="联合_7-2" x="0" y="0" width="121.813" height="82.999" filterUnits="userSpaceOnUse">
      <feOffset dy="3" input="SourceAlpha"/>
      <feGaussianBlur stdDeviation="1" result="blur-2"/>
      <feFlood flood-opacity="0.161" result="color"/>
      <feComposite operator="out" in="SourceGraphic" in2="blur-2"/>
      <feComposite operator="in" in="color"/>
      <feComposite operator="in" in2="SourceGraphic"/>
    </filter>
    <filter id="联合_6">
      <feOffset dy="3" input="SourceAlpha"/>
      <feGaussianBlur stdDeviation="1" result="blur-3"/>
      <feFlood flood-opacity="0.161" result="color-2"/>
      <feComposite operator="out" in="SourceGraphic" in2="blur-3"/>
      <feComposite operator="in" in="color-2"/>
      <feComposite operator="in" in2="SourceGraphic"/>
    </filter>
  </defs>
  <g id="cityIcon03" transform="translate(8.942 6.6)">
    <rect id="矩形_181" data-name="矩形 181" class="cls-1" width="130" height="129" transform="translate(-0.117 -0.208)"/>
    <g id="组_196" data-name="组 196" transform="translate(0.057 -0.6)">
      <g data-type="innerShadowGroup">
        <g class="cls-6" transform="matrix(1, 0, 0, 1, -9, -6)">
          <path id="联合_7-3" data-name="联合 7" class="cls-2" d="M17.315,65h-.049A17.381,17.381,0,0,1,15.3,30.361,17.371,17.371,0,0,1,32.574,14.792q.687,0,1.362.053a22.574,22.574,0,0,1,43.648,5.262A22.593,22.593,0,1,1,81.9,64.989q-.169.009-.34.009Z" transform="translate(9 6)"/>
        </g>
        <g class="cls-5" transform="matrix(1, 0, 0, 1, -9, -6)">
          <path id="联合_7-4" data-name="联合 7" class="cls-3" d="M17.315,65h-.049A17.381,17.381,0,0,1,15.3,30.361,17.371,17.371,0,0,1,32.574,14.792q.687,0,1.362.053a22.574,22.574,0,0,1,43.648,5.262A22.593,22.593,0,1,1,81.9,64.989q-.169.009-.34.009Z" transform="translate(9 6)"/>
        </g>
      </g>
      <g data-type="innerShadowGroup">
        <path id="联合_6-2" data-name="联合 6" class="cls-3" d="M27.443,44.8a22.234,22.234,0,0,1-5.022.571A22.554,22.554,0,0,1,0,22.684,22.554,22.554,0,0,1,22.421,0q.362,0,.721.011Q23.45,0,23.762,0H65.538a16.653,16.653,0,0,1,2.09.131A17.249,17.249,0,0,1,87,17.449,17.349,17.349,0,0,1,69.754,34.9h-.007a22.375,22.375,0,0,1-42.3,9.9Z" transform="translate(129.825 68.392) rotate(180)"/>
        <g class="cls-4" transform="matrix(1, 0, 0, 1, -9, -6)">
          <path id="联合_6-3" data-name="联合 6" class="cls-3" d="M27.443,44.8a22.234,22.234,0,0,1-5.022.571A22.554,22.554,0,0,1,0,22.684,22.554,22.554,0,0,1,22.421,0q.362,0,.721.011Q23.45,0,23.762,0H65.538a16.653,16.653,0,0,1,2.09.131A17.249,17.249,0,0,1,87,17.449,17.349,17.349,0,0,1,69.754,34.9h-.007a22.375,22.375,0,0,1-42.3,9.9Z" transform="translate(138.82 74.39) rotate(180)"/>
        </g>
      </g>
    </g>
  </g>
</svg>
