<svg xmlns="http://www.w3.org/2000/svg" xmlns:xlink="http://www.w3.org/1999/xlink" width="130" height="130" viewBox="0 0 130 130">
  <defs>
    <style>
      .cls-1, .cls-3 {
        fill: #fff;
      }

      .cls-1 {
        opacity: 0;
      }

      .cls-2 {
        fill: #ffe83e;
      }

      .cls-4 {
        fill: #ffd939;
      }

      .cls-5 {
        fill: #ffc23b;
      }

      .cls-6 {
        filter: url(#联合_4);
      }

      .cls-7 {
        filter: url(#联合_5);
      }

      .cls-8 {
        filter: url(#减去_1);
      }

      .cls-9 {
        filter: url(#椭圆_3);
      }

      .cls-10 {
        filter: url(#多边形_1);
      }
    </style>
    <filter id="多边形_1" x="14" y="0" width="93" height="93" filterUnits="userSpaceOnUse">
      <feOffset dy="3" input="SourceAlpha"/>
      <feGaussianBlur stdDeviation="3" result="blur"/>
      <feFlood flood-opacity="0.161" result="color"/>
      <feComposite operator="out" in="SourceGraphic" in2="blur"/>
      <feComposite operator="in" in="color"/>
      <feComposite operator="in" in2="SourceGraphic"/>
    </filter>
    <filter id="椭圆_3" x="32.466" y="17.913" width="57.33" height="57.33" filterUnits="userSpaceOnUse">
      <feOffset dy="3" input="SourceAlpha"/>
      <feGaussianBlur stdDeviation="3" result="blur-2"/>
      <feFlood flood-opacity="0.161" result="color-2"/>
      <feComposite operator="out" in="SourceGraphic" in2="blur-2"/>
      <feComposite operator="in" in="color-2"/>
      <feComposite operator="in" in2="SourceGraphic"/>
    </filter>
    <filter id="减去_1" x="32.54" y="17.953" width="34.556" height="57.309" filterUnits="userSpaceOnUse">
      <feOffset dy="3" input="SourceAlpha"/>
      <feGaussianBlur stdDeviation="3" result="blur-3"/>
      <feFlood flood-opacity="0.161" result="color-3"/>
      <feComposite operator="out" in="SourceGraphic" in2="blur-3"/>
      <feComposite operator="in" in="color-3"/>
      <feComposite operator="in" in2="SourceGraphic"/>
    </filter>
    <filter id="联合_5">
      <feOffset dy="3" input="SourceAlpha"/>
      <feGaussianBlur stdDeviation="1" result="blur-4"/>
      <feFlood flood-opacity="0.161" result="color-4"/>
      <feComposite operator="out" in="SourceGraphic" in2="blur-4"/>
      <feComposite operator="in" in="color-4"/>
      <feComposite operator="in" in2="SourceGraphic"/>
    </filter>
    <filter id="联合_4">
      <feOffset dy="3" input="SourceAlpha"/>
      <feGaussianBlur stdDeviation="1" result="blur-5"/>
      <feFlood flood-opacity="0.161" result="color-5"/>
      <feComposite operator="out" in="SourceGraphic" in2="blur-5"/>
      <feComposite operator="in" in="color-5"/>
      <feComposite operator="in" in2="SourceGraphic"/>
    </filter>
  </defs>
  <g id="cityIcon02" transform="translate(0.117)">
    <rect id="矩形_180" data-name="矩形 180" class="cls-1" width="130" height="130" transform="translate(-0.117)"/>
    <g id="组_194" data-name="组 194" transform="translate(0 -0.109)">
      <g id="组_15" data-name="组 15" transform="translate(13.916 0)">
        <g data-type="innerShadowGroup">
          <path id="多边形_1-2" data-name="多边形 1" class="cls-2" d="M54.712,8.536a8,8,0,0,1,12.826,5.313l.534,4.163a8,8,0,0,0,6.917,6.917l4.163.534a8,8,0,0,1,5.313,12.826L81.9,41.609a8,8,0,0,0,0,9.782l2.566,3.321a8,8,0,0,1-5.313,12.826l-4.163.534a8,8,0,0,0-6.917,6.917l-.534,4.163a8,8,0,0,1-12.826,5.313L51.391,81.9a8,8,0,0,0-9.782,0l-3.321,2.566a8,8,0,0,1-12.826-5.313l-.534-4.163a8,8,0,0,0-6.917-6.917l-4.163-.534A8,8,0,0,1,8.536,54.712L11.1,51.391a8,8,0,0,0,0-9.782L8.536,38.288a8,8,0,0,1,5.313-12.826l4.163-.534a8,8,0,0,0,6.917-6.917l.534-4.163A8,8,0,0,1,38.288,8.536L41.609,11.1a8,8,0,0,0,9.782,0Z" transform="translate(-0.033 0.109)"/>
          <g class="cls-10" transform="matrix(1, 0, 0, 1, -14.03, 0.11)">
            <path id="多边形_1-3" data-name="多边形 1" class="cls-3" d="M54.712,8.536a8,8,0,0,1,12.826,5.313l.534,4.163a8,8,0,0,0,6.917,6.917l4.163.534a8,8,0,0,1,5.313,12.826L81.9,41.609a8,8,0,0,0,0,9.782l2.566,3.321a8,8,0,0,1-5.313,12.826l-4.163.534a8,8,0,0,0-6.917,6.917l-.534,4.163a8,8,0,0,1-12.826,5.313L51.391,81.9a8,8,0,0,0-9.782,0l-3.321,2.566a8,8,0,0,1-12.826-5.313l-.534-4.163a8,8,0,0,0-6.917-6.917l-4.163-.534A8,8,0,0,1,8.536,54.712L11.1,51.391a8,8,0,0,0,0-9.782L8.536,38.288a8,8,0,0,1,5.313-12.826l4.163-.534a8,8,0,0,0,6.917-6.917l.534-4.163A8,8,0,0,1,38.288,8.536L41.609,11.1a8,8,0,0,0,9.782,0Z" transform="translate(14 0)"/>
          </g>
        </g>
        <g id="组_2" data-name="组 2" transform="translate(18.433 18.022)">
          <g data-type="innerShadowGroup">
            <circle id="椭圆_3-2" data-name="椭圆 3" class="cls-4" cx="28.665" cy="28.665" r="28.665" transform="translate(0 0)"/>
            <g class="cls-9" transform="matrix(1, 0, 0, 1, -32.47, -17.91)">
              <circle id="椭圆_3-3" data-name="椭圆 3" class="cls-3" cx="28.665" cy="28.665" r="28.665" transform="translate(32.47 17.91)"/>
            </g>
          </g>
          <g data-type="innerShadowGroup">
            <path id="减去_1-2" data-name="减去 1" class="cls-5" d="M28.654,57.309a28.866,28.866,0,0,1-5.775-.582,28.5,28.5,0,0,1-10.246-4.312A28.738,28.738,0,0,1,2.252,39.808a28.51,28.51,0,0,1-1.67-5.379,28.934,28.934,0,0,1,0-11.55A28.5,28.5,0,0,1,4.894,12.633,28.738,28.738,0,0,1,17.5,2.252,28.51,28.51,0,0,1,22.88.582,28.931,28.931,0,0,1,34.556.608a28.662,28.662,0,0,0,0,56.092A28.859,28.859,0,0,1,28.654,57.309Z" transform="translate(0.074 0.04)"/>
            <g class="cls-8" transform="matrix(1, 0, 0, 1, -32.47, -17.91)">
              <path id="减去_1-3" data-name="减去 1" class="cls-3" d="M28.654,57.309a28.866,28.866,0,0,1-5.775-.582,28.5,28.5,0,0,1-10.246-4.312A28.738,28.738,0,0,1,2.252,39.808a28.51,28.51,0,0,1-1.67-5.379,28.934,28.934,0,0,1,0-11.55A28.5,28.5,0,0,1,4.894,12.633,28.738,28.738,0,0,1,17.5,2.252,28.51,28.51,0,0,1,22.88.582,28.931,28.931,0,0,1,34.556.608a28.662,28.662,0,0,0,0,56.092A28.859,28.859,0,0,1,28.654,57.309Z" transform="translate(32.54 17.95)"/>
            </g>
          </g>
        </g>
      </g>
      <g data-type="innerShadowGroup">
        <path id="联合_5-2" data-name="联合 5" class="cls-3" d="M41.291,33.933A9.932,9.932,0,0,1,40.135,34H14.266q-.14,0-.278,0-.164,0-.329,0a13.531,13.531,0,1,1,0-27.061,13.83,13.83,0,0,1,3.059.341,13.686,13.686,0,0,1,25.771,5.9h0a10.409,10.409,0,1,1,0,20.816A10.717,10.717,0,0,1,41.291,33.933Z" transform="translate(-0.117 54.109)"/>
        <g class="cls-7" transform="matrix(1, 0, 0, 1, -0.12, 0.11)">
          <path id="联合_5-3" data-name="联合 5" class="cls-3" d="M41.291,33.933A9.932,9.932,0,0,1,40.135,34H14.266q-.14,0-.278,0-.164,0-.329,0a13.531,13.531,0,1,1,0-27.061,13.83,13.83,0,0,1,3.059.341,13.686,13.686,0,0,1,25.771,5.9h0a10.409,10.409,0,1,1,0,20.816A10.717,10.717,0,0,1,41.291,33.933Z" transform="translate(0 54)"/>
        </g>
      </g>
      <g data-type="innerShadowGroup">
        <path id="联合_4-2" data-name="联合 4" class="cls-3" d="M16.718,26.72a13.831,13.831,0,0,1-3.059.341A13.531,13.531,0,1,1,13.658,0q.165,0,.329,0,.139,0,.278,0H40.135a9.933,9.933,0,0,1,1.157.067A10.715,10.715,0,0,1,42.493,0a10.409,10.409,0,1,1,0,20.816h0a13.687,13.687,0,0,1-25.771,5.9Z" transform="translate(129.883 65.109) rotate(180)"/>
        <g class="cls-6" transform="matrix(1, 0, 0, 1, -0.12, 0.11)">
          <path id="联合_4-3" data-name="联合 4" class="cls-3" d="M16.718,26.72a13.831,13.831,0,0,1-3.059.341A13.531,13.531,0,1,1,13.658,0q.165,0,.329,0,.139,0,.278,0H40.135a9.933,9.933,0,0,1,1.157.067A10.715,10.715,0,0,1,42.493,0a10.409,10.409,0,1,1,0,20.816h0a13.687,13.687,0,0,1-25.771,5.9Z" transform="translate(130 65) rotate(180)"/>
        </g>
      </g>
    </g>
  </g>
</svg>
