<svg xmlns="http://www.w3.org/2000/svg" xmlns:xlink="http://www.w3.org/1999/xlink" width="139" height="135.392" viewBox="0 0 139 135.392">
  <defs>
    <style>
      .cls-1, .cls-3 {
        fill: #fff;
      }

      .cls-1 {
        opacity: 0;
      }

      .cls-2 {
        fill: #4092fb;
      }

      .cls-4 {
        fill: #ececec;
      }

      .cls-5 {
        fill: #cecece;
      }

      .cls-6 {
        filter: url(#填色_水滴_水_油-5);
      }

      .cls-7 {
        filter: url(#填色_水滴_水_油-4);
      }

      .cls-8 {
        filter: url(#联合_6);
      }

      .cls-9 {
        filter: url(#联合_7-2);
      }

      .cls-10 {
        filter: url(#联合_7);
      }

      .cls-11 {
        filter: url(#填色_水滴_水_油-3);
      }

      .cls-12 {
        filter: url(#填色_水滴_水_油-2);
      }

      .cls-13 {
        filter: url(#填色_水滴_水_油);
      }
    </style>
    <filter id="填色_水滴_水_油">
      <feOffset dy="3" input="SourceAlpha"/>
      <feGaussianBlur stdDeviation="3" result="blur"/>
      <feFlood flood-opacity="0.302" result="color"/>
      <feComposite operator="out" in="SourceGraphic" in2="blur"/>
      <feComposite operator="in" in="color"/>
      <feComposite operator="in" in2="SourceGraphic"/>
    </filter>
    <filter id="填色_水滴_水_油-2">
      <feOffset dy="3" input="SourceAlpha"/>
      <feGaussianBlur stdDeviation="3" result="blur-2"/>
      <feFlood flood-opacity="0.302" result="color-2"/>
      <feComposite operator="out" in="SourceGraphic" in2="blur-2"/>
      <feComposite operator="in" in="color-2"/>
      <feComposite operator="in" in2="SourceGraphic"/>
    </filter>
    <filter id="填色_水滴_水_油-3">
      <feOffset dy="3" input="SourceAlpha"/>
      <feGaussianBlur stdDeviation="3" result="blur-3"/>
      <feFlood flood-opacity="0.302" result="color-3"/>
      <feComposite operator="out" in="SourceGraphic" in2="blur-3"/>
      <feComposite operator="in" in="color-3"/>
      <feComposite operator="in" in2="SourceGraphic"/>
    </filter>
    <filter id="联合_7" x="0" y="0" width="121.813" height="82.999" filterUnits="userSpaceOnUse">
      <feOffset dy="3" input="SourceAlpha"/>
      <feGaussianBlur stdDeviation="3" result="blur-4"/>
      <feFlood flood-opacity="0.161"/>
      <feComposite operator="in" in2="blur-4"/>
      <feComposite in="SourceGraphic"/>
    </filter>
    <filter id="联合_7-2" x="0" y="0" width="121.813" height="82.999" filterUnits="userSpaceOnUse">
      <feOffset dy="3" input="SourceAlpha"/>
      <feGaussianBlur stdDeviation="1" result="blur-5"/>
      <feFlood flood-opacity="0.161" result="color-4"/>
      <feComposite operator="out" in="SourceGraphic" in2="blur-5"/>
      <feComposite operator="in" in="color-4"/>
      <feComposite operator="in" in2="SourceGraphic"/>
    </filter>
    <filter id="联合_6">
      <feOffset dy="3" input="SourceAlpha"/>
      <feGaussianBlur stdDeviation="1" result="blur-6"/>
      <feFlood flood-opacity="0.161" result="color-5"/>
      <feComposite operator="out" in="SourceGraphic" in2="blur-6"/>
      <feComposite operator="in" in="color-5"/>
      <feComposite operator="in" in2="SourceGraphic"/>
    </filter>
    <filter id="填色_水滴_水_油-4">
      <feOffset dy="3" input="SourceAlpha"/>
      <feGaussianBlur stdDeviation="3" result="blur-7"/>
      <feFlood flood-opacity="0.302" result="color-6"/>
      <feComposite operator="out" in="SourceGraphic" in2="blur-7"/>
      <feComposite operator="in" in="color-6"/>
      <feComposite operator="in" in2="SourceGraphic"/>
    </filter>
    <filter id="填色_水滴_水_油-5">
      <feOffset dy="3" input="SourceAlpha"/>
      <feGaussianBlur stdDeviation="3" result="blur-8"/>
      <feFlood flood-opacity="0.302" result="color-7"/>
      <feComposite operator="out" in="SourceGraphic" in2="blur-8"/>
      <feComposite operator="in" in="color-7"/>
      <feComposite operator="in" in2="SourceGraphic"/>
    </filter>
  </defs>
  <g id="cityIcon04" transform="translate(9 6.6)">
    <rect id="矩形_182" data-name="矩形 182" class="cls-1" width="130" height="129" transform="translate(0 -0.208)"/>
    <g id="组_197" data-name="组 197" transform="translate(0 -0.6)">
      <g data-type="innerShadowGroup">
        <path id="填色_水滴_水_油-6" data-name="填色,水滴,水,油" class="cls-2" d="M15.467,11.385A7.733,7.733,0,0,1,0,11.385C0,7.162,3.236,4.01,5.521,1.079a2.808,2.808,0,0,1,4.425,0C12.231,4.01,15.467,7.162,15.467,11.385Z" transform="matrix(0.996, 0.087, -0.087, 0.996, 93.27, 54.692)"/>
        <g class="cls-13" transform="matrix(1, 0, 0, 1, -9, -6)">
          <path id="填色_水滴_水_油-7" data-name="填色,水滴,水,油" class="cls-3" d="M15.467,11.385A7.733,7.733,0,0,1,0,11.385C0,7.162,3.236,4.01,5.521,1.079a2.808,2.808,0,0,1,4.425,0C12.231,4.01,15.467,7.162,15.467,11.385Z" transform="matrix(1, 0.09, -0.09, 1, 102.27, 60.69)"/>
        </g>
      </g>
      <g data-type="innerShadowGroup">
        <path id="填色_水滴_水_油-8" data-name="填色,水滴,水,油" class="cls-2" d="M15.467,11.385A7.733,7.733,0,0,1,0,11.385C0,7.162,3.236,4.01,5.521,1.079a2.808,2.808,0,0,1,4.425,0C12.231,4.01,15.467,7.162,15.467,11.385Z" transform="translate(22.802 54.692) rotate(8)"/>
        <g class="cls-12" transform="matrix(1, 0, 0, 1, -9, -6)">
          <path id="填色_水滴_水_油-9" data-name="填色,水滴,水,油" class="cls-3" d="M15.467,11.385A7.733,7.733,0,0,1,0,11.385C0,7.162,3.236,4.01,5.521,1.079a2.808,2.808,0,0,1,4.425,0C12.231,4.01,15.467,7.162,15.467,11.385Z" transform="translate(31.8 60.69) rotate(8)"/>
        </g>
      </g>
      <g data-type="innerShadowGroup">
        <path id="填色_水滴_水_油-10" data-name="填色,水滴,水,油" class="cls-2" d="M15.467,11.385A7.733,7.733,0,0,1,0,11.385C0,7.162,3.236,4.01,5.521,1.079a2.808,2.808,0,0,1,4.425,0C12.231,4.01,15.467,7.162,15.467,11.385Z" transform="translate(58.487 54.001) rotate(8)"/>
        <g class="cls-11" transform="matrix(1, 0, 0, 1, -9, -6)">
          <path id="填色_水滴_水_油-11" data-name="填色,水滴,水,油" class="cls-3" d="M15.467,11.385A7.733,7.733,0,0,1,0,11.385C0,7.162,3.236,4.01,5.521,1.079a2.808,2.808,0,0,1,4.425,0C12.231,4.01,15.467,7.162,15.467,11.385Z" transform="translate(67.49 60) rotate(8)"/>
        </g>
      </g>
      <g id="组_12" data-name="组 12" transform="translate(0 0)">
        <g data-type="innerShadowGroup">
          <g class="cls-10" transform="matrix(1, 0, 0, 1, -9, -6)">
            <path id="联合_7-3" data-name="联合 7" class="cls-4" d="M17.315,65h-.049A17.381,17.381,0,0,1,15.3,30.361,17.371,17.371,0,0,1,32.574,14.792q.687,0,1.362.053a22.574,22.574,0,0,1,43.648,5.262A22.593,22.593,0,1,1,81.9,64.989q-.169.009-.34.009Z" transform="translate(9 6)"/>
          </g>
          <g class="cls-9" transform="matrix(1, 0, 0, 1, -9, -6)">
            <path id="联合_7-4" data-name="联合 7" class="cls-3" d="M17.315,65h-.049A17.381,17.381,0,0,1,15.3,30.361,17.371,17.371,0,0,1,32.574,14.792q.687,0,1.362.053a22.574,22.574,0,0,1,43.648,5.262A22.593,22.593,0,1,1,81.9,64.989q-.169.009-.34.009Z" transform="translate(9 6)"/>
          </g>
        </g>
        <g data-type="innerShadowGroup">
          <path id="联合_6-2" data-name="联合 6" class="cls-5" d="M27.443,44.8a22.234,22.234,0,0,1-5.022.571A22.554,22.554,0,0,1,0,22.684,22.554,22.554,0,0,1,22.421,0q.362,0,.721.011Q23.45,0,23.762,0H65.538a16.653,16.653,0,0,1,2.09.131A17.249,17.249,0,0,1,87,17.449,17.349,17.349,0,0,1,69.754,34.9h-.007a22.375,22.375,0,0,1-42.3,9.9Z" transform="translate(130 68.392) rotate(180)"/>
          <g class="cls-8" transform="matrix(1, 0, 0, 1, -9, -6)">
            <path id="联合_6-3" data-name="联合 6" class="cls-3" d="M27.443,44.8a22.234,22.234,0,0,1-5.022.571A22.554,22.554,0,0,1,0,22.684,22.554,22.554,0,0,1,22.421,0q.362,0,.721.011Q23.45,0,23.762,0H65.538a16.653,16.653,0,0,1,2.09.131A17.249,17.249,0,0,1,87,17.449,17.349,17.349,0,0,1,69.754,34.9h-.007a22.375,22.375,0,0,1-42.3,9.9Z" transform="translate(139 74.39) rotate(180)"/>
          </g>
        </g>
      </g>
      <g data-type="innerShadowGroup">
        <path id="填色_水滴_水_油-12" data-name="填色,水滴,水,油" class="cls-2" d="M15.467,11.385A7.733,7.733,0,0,1,0,11.385C0,7.162,3.236,4.01,5.521,1.079a2.808,2.808,0,0,1,4.425,0C12.231,4.01,15.467,7.162,15.467,11.385Z" transform="translate(76.465 72.995) rotate(8)"/>
        <g class="cls-7" transform="matrix(1, 0, 0, 1, -9, -6)">
          <path id="填色_水滴_水_油-13" data-name="填色,水滴,水,油" class="cls-3" d="M15.467,11.385A7.733,7.733,0,0,1,0,11.385C0,7.162,3.236,4.01,5.521,1.079a2.808,2.808,0,0,1,4.425,0C12.231,4.01,15.467,7.162,15.467,11.385Z" transform="translate(85.46 78.99) rotate(8)"/>
        </g>
      </g>
      <g data-type="innerShadowGroup">
        <path id="填色_水滴_水_油-14" data-name="填色,水滴,水,油" class="cls-2" d="M15.467,11.385A7.733,7.733,0,0,1,0,11.385C0,7.162,3.236,4.01,5.521,1.079a2.808,2.808,0,0,1,4.425,0C12.231,4.01,15.467,7.162,15.467,11.385Z" transform="translate(39.023 72.995) rotate(8)"/>
        <g class="cls-6" transform="matrix(1, 0, 0, 1, -9, -6)">
          <path id="填色_水滴_水_油-15" data-name="填色,水滴,水,油" class="cls-3" d="M15.467,11.385A7.733,7.733,0,0,1,0,11.385C0,7.162,3.236,4.01,5.521,1.079a2.808,2.808,0,0,1,4.425,0C12.231,4.01,15.467,7.162,15.467,11.385Z" transform="translate(48.02 78.99) rotate(8)"/>
        </g>
      </g>
    </g>
  </g>
</svg>
