<svg xmlns="http://www.w3.org/2000/svg" width="50" height="91" viewBox="0 0 50 91">
  <defs>
    <style>
      .cls-1 {
        fill: #6e6e6e;
      }

      .cls-2 {
        fill: #ffd939;
      }
    </style>
  </defs>
  <g id="countyTemperatureImg" transform="translate(-320 -128)">
    <path id="路径_69" data-name="路径 69" class="cls-1" d="M341.429,128c7.857,0,14.286,6.825,14.286,15.167v36.021a23.821,23.821,0,0,1,7.143,17.062c0,12.513-9.643,22.75-21.429,22.75S320,208.762,320,196.25a23.821,23.821,0,0,1,7.143-17.062V143.167C327.143,134.825,333.571,128,341.429,128Zm0,7.583c-3.929,0-6.786,3.033-7.143,7.2V182.6l-2.5,2.275a16.231,16.231,0,0,0-4.643,11.375c0,8.342,6.429,15.167,14.286,15.167s14.286-6.825,14.286-15.167a14.178,14.178,0,0,0-4.286-10.617l-.357-.758-2.5-2.275V143.167A7.4,7.4,0,0,0,341.429,135.583Zm25,30.333A3.483,3.483,0,0,1,370,169.708a3.955,3.955,0,0,1-3.214,3.792h-3.929a3.483,3.483,0,0,1-3.571-3.792,3.955,3.955,0,0,1,3.214-3.792Zm0-15.167A3.483,3.483,0,0,1,370,154.542a3.955,3.955,0,0,1-3.214,3.792h-3.929a3.483,3.483,0,0,1-3.571-3.792,3.955,3.955,0,0,1,3.214-3.792Zm0-15.167A3.482,3.482,0,0,1,370,139.375a3.955,3.955,0,0,1-3.214,3.792h-3.929a3.482,3.482,0,0,1-3.571-3.792,3.955,3.955,0,0,1,3.214-3.792Z"/>
    <path id="路径_70" data-name="路径 70" class="cls-2" d="M441.1,384a3.949,3.949,0,0,1,3.64,3.451v26.073a9.721,9.721,0,0,1,5.46,8.819,9.113,9.113,0,1,1-18.2,0,9.721,9.721,0,0,1,5.46-8.819V387.451A3.949,3.949,0,0,1,441.1,384Z" transform="translate(-99.634 -226.349)"/>
  </g>
</svg>
