<svg xmlns="http://www.w3.org/2000/svg" width="79" height="74" viewBox="0 0 79 74">
  <defs>
    <style>
      .cls-1 {
        fill: #ee4e60;
      }

      .cls-2 {
        fill: #303030;
        font-size: 24px;
        font-family: NotoSansTC-Bold, Noto Sans TC;
        font-weight: 700;
      }
    </style>
  </defs>
  <g id="CountyUV" transform="translate(0 0)">
    <path id="减去_2" data-name="减去 2" class="cls-1" d="M36.81,74A3.307,3.307,0,0,1,33.5,70.7v-.808a3.3,3.3,0,0,1,3.179-3.429l.13,0a3.307,3.307,0,0,1,3.3,3.177V70.7a3.31,3.31,0,0,1-3.3,3.3Zm23.81-9.877H60.6a3.258,3.258,0,0,1-2.328-.979l-.569-.568a3.3,3.3,0,0,1,4.667-4.66l.569.568a3.295,3.295,0,0,1-2.317,5.639Zm-47.646,0a3.288,3.288,0,0,1-2.32-5.624l.569-.568a3.3,3.3,0,0,1,4.671,4.66l-.573.568a3.3,3.3,0,0,1-2.33.964h-.016Zm23.813-4.254h-.023a23.04,23.04,0,0,1-4.6-.468A22.73,22.73,0,0,1,24,55.962a22.875,22.875,0,0,1-8.265-10.042,22.666,22.666,0,0,1-1.327-4.282,22.993,22.993,0,0,1,.009-9.189A22.661,22.661,0,0,1,17.856,24.3,22.9,22.9,0,0,1,27.9,16.05a22.747,22.747,0,0,1,4.284-1.327,23.036,23.036,0,0,1,4.6-.463h.025a22.83,22.83,0,0,1,7.77,1.371v6.439a16.826,16.826,0,0,0-3.709-1.4,17,17,0,0,0-4.066-.491H36.8a16.877,16.877,0,1,0,0,33.754h0A16.9,16.9,0,0,0,53.193,41.188h6.058a22.634,22.634,0,0,1-2.755,7.4,22.814,22.814,0,0,1-19.71,11.279ZM3.933,40.374h-.8v-.01a3.3,3.3,0,0,1-.01-6.588h.814a3.3,3.3,0,1,1,0,6.6Zm9.614-23.24H13.54a3.267,3.267,0,0,1-2.332-.979l-.554-.563a3.294,3.294,0,0,1,4.662-4.655l.554.563a3.294,3.294,0,0,1-2.322,5.634ZM36.81,7.53H36.8a3.3,3.3,0,0,1-3.3-3.294V3.429A3.3,3.3,0,0,1,36.683,0l.127,0a3.306,3.306,0,0,1,3.3,3.179V4.231a3.31,3.31,0,0,1-3.3,3.3Z" transform="translate(0 0)"/>
    <text id="UV" class="cls-2" transform="translate(46 35.764)"><tspan x="0" y="0">UV</tspan></text>
  </g>
</svg>
