<svg xmlns="http://www.w3.org/2000/svg" width="59.597" height="49.598" viewBox="0 0 59.597 49.598">
  <defs>
    <style>
      .cls-1 {
        fill: #4092fb;
      }

      .cls-2 {
        fill: none;
        stroke: #4092fb;
        stroke-linecap: round;
        stroke-width: 5px;
      }
    </style>
  </defs>
  <g id="wind" transform="translate(3.597 3.739)">
    <path id="减去_6" data-name="减去 6" class="cls-1" d="M18.518,44h0a8.352,8.352,0,0,1-8.436-8.244V33H15.7v2.749a2.788,2.788,0,0,0,2.812,2.736h.013a2.791,2.791,0,0,0,2.8-2.736V34.379a4.176,4.176,0,0,0-4.218-4.123H0l5.6-5.5H17.111a9.893,9.893,0,0,1,6.959,2.818,9.45,9.45,0,0,1,2.883,6.8v1.374a8.1,8.1,0,0,1-2.47,5.831A8.48,8.48,0,0,1,18.518,44ZM39.245,19.3H11.163l5.618-5.514H39.244a4.163,4.163,0,0,0,4.18-4.135V8.273a2.778,2.778,0,0,0-2.788-2.744h-.013a2.782,2.782,0,0,0-2.773,2.744V11.03H32.277V8.273A8.362,8.362,0,0,1,49,8.269V9.651a9.535,9.535,0,0,1-2.857,6.823A9.745,9.745,0,0,1,39.245,19.3Z" transform="translate(7 1.859)"/>
    <line id="直线_4" data-name="直线 4" class="cls-2" x2="58.747" y2="1.038" transform="translate(42.274 0.592) rotate(135)"/>
  </g>
</svg>
