<svg xmlns="http://www.w3.org/2000/svg" xmlns:xlink="http://www.w3.org/1999/xlink" width="59" height="50" viewBox="0 0 59 50"><defs><style>.a,.c{fill:#fff;}.a{opacity:0;}.b{fill:#4092fb;}.d{fill:#ececec;}.e{fill:#cecece;}.f{filter:url(#u);}.g{filter:url(#r);}.h{filter:url(#o);}.i{filter:url(#l);}.j{filter:url(#j);}.k{filter:url(#g);}.l{filter:url(#d);}.m{filter:url(#a);}</style><filter id="a"><feOffset dy="3" input="SourceAlpha"/><feGaussianBlur stdDeviation="3" result="b"/><feFlood flood-opacity="0.302" result="c"/><feComposite operator="out" in="SourceGraphic" in2="b"/><feComposite operator="in" in="c"/><feComposite operator="in" in2="SourceGraphic"/></filter><filter id="d"><feOffset dy="3" input="SourceAlpha"/><feGaussianBlur stdDeviation="3" result="e"/><feFlood flood-opacity="0.302" result="f"/><feComposite operator="out" in="SourceGraphic" in2="e"/><feComposite operator="in" in="f"/><feComposite operator="in" in2="SourceGraphic"/></filter><filter id="g"><feOffset dy="3" input="SourceAlpha"/><feGaussianBlur stdDeviation="3" result="h"/><feFlood flood-opacity="0.302" result="i"/><feComposite operator="out" in="SourceGraphic" in2="h"/><feComposite operator="in" in="i"/><feComposite operator="in" in2="SourceGraphic"/></filter><filter id="j" x="0" y="0.901" width="58.152" height="43.14" filterUnits="userSpaceOnUse"><feOffset dy="3" input="SourceAlpha"/><feGaussianBlur stdDeviation="3" result="k"/><feFlood flood-opacity="0.161"/><feComposite operator="in" in2="k"/><feComposite in="SourceGraphic"/></filter><filter id="l" x="0" y="0.901" width="58.152" height="43.14" filterUnits="userSpaceOnUse"><feOffset dy="3" input="SourceAlpha"/><feGaussianBlur stdDeviation="1" result="m"/><feFlood flood-opacity="0.161" result="n"/><feComposite operator="out" in="SourceGraphic" in2="m"/><feComposite operator="in" in="n"/><feComposite operator="in" in2="SourceGraphic"/></filter><filter id="o"><feOffset dy="3" input="SourceAlpha"/><feGaussianBlur stdDeviation="1" result="p"/><feFlood flood-opacity="0.161" result="q"/><feComposite operator="out" in="SourceGraphic" in2="p"/><feComposite operator="in" in="q"/><feComposite operator="in" in2="SourceGraphic"/></filter><filter id="r"><feOffset dy="3" input="SourceAlpha"/><feGaussianBlur stdDeviation="3" result="s"/><feFlood flood-opacity="0.302" result="t"/><feComposite operator="out" in="SourceGraphic" in2="s"/><feComposite operator="in" in="t"/><feComposite operator="in" in2="SourceGraphic"/></filter><filter id="u"><feOffset dy="3" input="SourceAlpha"/><feGaussianBlur stdDeviation="3" result="v"/><feFlood flood-opacity="0.302" result="w"/><feComposite operator="out" in="SourceGraphic" in2="v"/><feComposite operator="in" in="w"/><feComposite operator="in" in2="SourceGraphic"/></filter></defs><g transform="translate(9)"><rect class="a" width="50" height="50"/><g transform="translate(0 6.901)"><g data-type="innerShadowGroup"><path class="b" d="M5.982,4.4A2.991,2.991,0,0,1,0,4.4C0,2.77,1.251,1.551,2.135.417a1.086,1.086,0,0,1,1.711,0C4.731,1.551,5.982,2.77,5.982,4.4Z" transform="matrix(0.996, 0.087, -0.087, 0.996, 36.074, 21.153)"/><g class="m" transform="matrix(1, 0, 0, 1, -9, -6.9)"><path class="c" d="M5.982,4.4A2.991,2.991,0,0,1,0,4.4C0,2.77,1.251,1.551,2.135.417a1.086,1.086,0,0,1,1.711,0C4.731,1.551,5.982,2.77,5.982,4.4Z" transform="matrix(1, 0.09, -0.09, 1, 45.07, 28.05)"/></g></g><g data-type="innerShadowGroup"><path class="b" d="M5.982,4.4A2.991,2.991,0,0,1,0,4.4C0,2.77,1.251,1.551,2.135.417a1.086,1.086,0,0,1,1.711,0C4.731,1.551,5.982,2.77,5.982,4.4Z" transform="translate(8.819 21.153) rotate(8)"/><g class="l" transform="matrix(1, 0, 0, 1, -9, -6.9)"><path class="c" d="M5.982,4.4A2.991,2.991,0,0,1,0,4.4C0,2.77,1.251,1.551,2.135.417a1.086,1.086,0,0,1,1.711,0C4.731,1.551,5.982,2.77,5.982,4.4Z" transform="translate(17.82 28.05) rotate(8)"/></g></g><g data-type="innerShadowGroup"><path class="b" d="M5.982,4.4A2.991,2.991,0,0,1,0,4.4C0,2.77,1.251,1.551,2.135.417a1.086,1.086,0,0,1,1.711,0C4.731,1.551,5.982,2.77,5.982,4.4Z" transform="translate(22.621 20.886) rotate(8)"/><g class="k" transform="matrix(1, 0, 0, 1, -9, -6.9)"><path class="c" d="M5.982,4.4A2.991,2.991,0,0,1,0,4.4C0,2.77,1.251,1.551,2.135.417a1.086,1.086,0,0,1,1.711,0C4.731,1.551,5.982,2.77,5.982,4.4Z" transform="translate(31.62 27.79) rotate(8)"/></g></g><g transform="translate(0 0)"><g data-type="innerShadowGroup"><g class="j" transform="matrix(1, 0, 0, 1, -9, -6.9)"><path class="d" d="M31.113,25.134c-.059,0-.118.005-.178.005H7.2q-.093,0-.184-.007-.152.007-.305.007a6.722,6.722,0,0,1-.8-13.4A6.719,6.719,0,0,1,12.6,5.721q.266,0,.527.02A8.731,8.731,0,0,1,30.008,7.777,8.738,8.738,0,1,1,31.421,25.14C31.318,25.14,31.216,25.138,31.113,25.134Z" transform="translate(9 6.9)"/></g><g class="i" transform="matrix(1, 0, 0, 1, -9, -6.9)"><path class="c" d="M31.113,25.134c-.059,0-.118.005-.178.005H7.2q-.093,0-.184-.007-.152.007-.305.007a6.722,6.722,0,0,1-.8-13.4A6.719,6.719,0,0,1,12.6,5.721q.266,0,.527.02A8.731,8.731,0,0,1,30.008,7.777,8.738,8.738,0,1,1,31.421,25.14C31.318,25.14,31.216,25.138,31.113,25.134Z" transform="translate(9 6.9)"/></g></g><g data-type="innerShadowGroup"><path class="e" d="M10.725,17.29A8.757,8.757,0,1,1,8.762,0c.08,0,.16,0,.239,0s.136,0,.2,0H25.692a6.42,6.42,0,0,1,.772.046A6.821,6.821,0,0,1,27.26,0a6.735,6.735,0,1,1,0,13.469h0A8.765,8.765,0,0,1,10.725,17.29Z" transform="translate(50 26.099) rotate(180)"/><g class="h" transform="matrix(1, 0, 0, 1, -9, -6.9)"><path class="c" d="M10.725,17.29A8.757,8.757,0,1,1,8.762,0c.08,0,.16,0,.239,0s.136,0,.2,0H25.692a6.42,6.42,0,0,1,.772.046A6.821,6.821,0,0,1,27.26,0a6.735,6.735,0,1,1,0,13.469h0A8.765,8.765,0,0,1,10.725,17.29Z" transform="translate(59 33) rotate(180)"/></g></g></g><g data-type="innerShadowGroup"><path class="b" d="M5.982,4.4A2.991,2.991,0,0,1,0,4.4C0,2.77,1.251,1.551,2.135.417a1.086,1.086,0,0,1,1.711,0C4.731,1.551,5.982,2.77,5.982,4.4Z" transform="translate(29.574 28.232) rotate(8)"/><g class="g" transform="matrix(1, 0, 0, 1, -9, -6.9)"><path class="c" d="M5.982,4.4A2.991,2.991,0,0,1,0,4.4C0,2.77,1.251,1.551,2.135.417a1.086,1.086,0,0,1,1.711,0C4.731,1.551,5.982,2.77,5.982,4.4Z" transform="translate(38.57 35.13) rotate(8)"/></g></g><g data-type="innerShadowGroup"><path class="b" d="M5.982,4.4A2.991,2.991,0,0,1,0,4.4C0,2.77,1.251,1.551,2.135.417a1.086,1.086,0,0,1,1.711,0C4.731,1.551,5.982,2.77,5.982,4.4Z" transform="translate(15.093 28.232) rotate(8)"/><g class="f" transform="matrix(1, 0, 0, 1, -9, -6.9)"><path class="c" d="M5.982,4.4A2.991,2.991,0,0,1,0,4.4C0,2.77,1.251,1.551,2.135.417a1.086,1.086,0,0,1,1.711,0C4.731,1.551,5.982,2.77,5.982,4.4Z" transform="translate(24.09 35.13) rotate(8)"/></g></g></g></g></svg>