<svg xmlns="http://www.w3.org/2000/svg" xmlns:xlink="http://www.w3.org/1999/xlink" width="80" height="58" viewBox="0 0 80 58">
  <defs>
    <style>
      .cls-1 {
        fill: #ffe83e;
      }

      .cls-2, .cls-5 {
        fill: #fff;
      }

      .cls-3 {
        fill: #ffd939;
      }

      .cls-4 {
        fill: #ffc23b;
      }

      .cls-5 {
        opacity: 0;
      }

      .cls-6 {
        filter: url(#联合_4);
      }

      .cls-7 {
        filter: url(#联合_5);
      }

      .cls-8 {
        filter: url(#减去_1);
      }

      .cls-9 {
        filter: url(#椭圆_3);
      }

      .cls-10 {
        filter: url(#多边形_1);
      }
    </style>
    <filter id="多边形_1" x="11" y="0" width="58" height="58" filterUnits="userSpaceOnUse">
      <feOffset dy="3" input="SourceAlpha"/>
      <feGaussianBlur stdDeviation="3" result="blur"/>
      <feFlood flood-opacity="0.161" result="color"/>
      <feComposite operator="out" in="SourceGraphic" in2="blur"/>
      <feComposite operator="in" in="color"/>
      <feComposite operator="in" in2="SourceGraphic"/>
    </filter>
    <filter id="椭圆_3" x="22.369" y="11.121" width="35.283" height="35.283" filterUnits="userSpaceOnUse">
      <feOffset dy="3" input="SourceAlpha"/>
      <feGaussianBlur stdDeviation="3" result="blur-2"/>
      <feFlood flood-opacity="0.161" result="color-2"/>
      <feComposite operator="out" in="SourceGraphic" in2="blur-2"/>
      <feComposite operator="in" in="color-2"/>
      <feComposite operator="in" in2="SourceGraphic"/>
    </filter>
    <filter id="减去_1" x="22.415" y="11.146" width="21.267" height="35.27" filterUnits="userSpaceOnUse">
      <feOffset dy="3" input="SourceAlpha"/>
      <feGaussianBlur stdDeviation="3" result="blur-3"/>
      <feFlood flood-opacity="0.161" result="color-3"/>
      <feComposite operator="out" in="SourceGraphic" in2="blur-3"/>
      <feComposite operator="in" in="color-3"/>
      <feComposite operator="in" in2="SourceGraphic"/>
    </filter>
    <filter id="联合_5">
      <feOffset dy="3" input="SourceAlpha"/>
      <feGaussianBlur stdDeviation="1" result="blur-4"/>
      <feFlood flood-opacity="0.161" result="color-4"/>
      <feComposite operator="out" in="SourceGraphic" in2="blur-4"/>
      <feComposite operator="in" in="color-4"/>
      <feComposite operator="in" in2="SourceGraphic"/>
    </filter>
    <filter id="联合_4">
      <feOffset dy="3" input="SourceAlpha"/>
      <feGaussianBlur stdDeviation="1" result="blur-5"/>
      <feFlood flood-opacity="0.161" result="color-5"/>
      <feComposite operator="out" in="SourceGraphic" in2="blur-5"/>
      <feComposite operator="in" in="color-5"/>
      <feComposite operator="in" in2="SourceGraphic"/>
    </filter>
  </defs>
  <g id="countyWeather01" transform="translate(-532 -876)">
    <g id="组_15" data-name="组 15" transform="translate(542.981 876)">
      <g data-type="innerShadowGroup">
        <path id="多边形_1-2" data-name="多边形 1" class="cls-1" d="M32.686,6.433a6.029,6.029,0,0,1,9.666,4h0a6.029,6.029,0,0,0,5.212,5.212h0a6.029,6.029,0,0,1,4,9.666h0a6.029,6.029,0,0,0,0,7.372h0a6.029,6.029,0,0,1-4,9.666h0a6.029,6.029,0,0,0-5.212,5.212h0a6.029,6.029,0,0,1-9.666,4h0a6.029,6.029,0,0,0-7.372,0h0a6.029,6.029,0,0,1-9.666-4h0a6.029,6.029,0,0,0-5.212-5.212h0a6.029,6.029,0,0,1-4-9.666h0a6.029,6.029,0,0,0,0-7.372h0a6.029,6.029,0,0,1,4-9.666h0a6.029,6.029,0,0,0,5.212-5.212h0a6.029,6.029,0,0,1,9.666-4h0a6.029,6.029,0,0,0,7.372,0Z" transform="translate(0.019)"/>
        <g class="cls-10" transform="matrix(1, 0, 0, 1, -10.98, 0)">
          <path id="多边形_1-3" data-name="多边形 1" class="cls-2" d="M32.686,6.433a6.029,6.029,0,0,1,9.666,4h0a6.029,6.029,0,0,0,5.212,5.212h0a6.029,6.029,0,0,1,4,9.666h0a6.029,6.029,0,0,0,0,7.372h0a6.029,6.029,0,0,1-4,9.666h0a6.029,6.029,0,0,0-5.212,5.212h0a6.029,6.029,0,0,1-9.666,4h0a6.029,6.029,0,0,0-7.372,0h0a6.029,6.029,0,0,1-9.666-4h0a6.029,6.029,0,0,0-5.212-5.212h0a6.029,6.029,0,0,1-4-9.666h0a6.029,6.029,0,0,0,0-7.372h0a6.029,6.029,0,0,1,4-9.666h0a6.029,6.029,0,0,0,5.212-5.212h0a6.029,6.029,0,0,1,9.666-4h0a6.029,6.029,0,0,0,7.372,0Z" transform="translate(11)"/>
        </g>
      </g>
      <g id="组_2" data-name="组 2" transform="translate(11.388 11.121)">
        <g data-type="innerShadowGroup">
          <circle id="椭圆_3-2" data-name="椭圆 3" class="cls-3" cx="17.642" cy="17.642" r="17.642" transform="translate(0 0)"/>
          <g class="cls-9" transform="matrix(1, 0, 0, 1, -22.37, -11.12)">
            <circle id="椭圆_3-3" data-name="椭圆 3" class="cls-2" cx="17.642" cy="17.642" r="17.642" transform="translate(22.37 11.12)"/>
          </g>
        </g>
        <g data-type="innerShadowGroup">
          <path id="减去_1-2" data-name="减去 1" class="cls-4" d="M17.635,35.27a17.765,17.765,0,0,1-3.554-.358,17.539,17.539,0,0,1-6.306-2.654A17.687,17.687,0,0,1,1.386,24.5a17.546,17.546,0,0,1-1.028-3.31,17.807,17.807,0,0,1,0-7.108A17.539,17.539,0,0,1,3.012,7.775a17.687,17.687,0,0,1,7.759-6.389A17.546,17.546,0,0,1,14.081.358a17.805,17.805,0,0,1,7.186.016,17.64,17.64,0,0,0,0,34.521A17.761,17.761,0,0,1,17.635,35.27Z" transform="translate(0.046 0.025)"/>
          <g class="cls-8" transform="matrix(1, 0, 0, 1, -22.37, -11.12)">
            <path id="减去_1-3" data-name="减去 1" class="cls-2" d="M17.635,35.27a17.765,17.765,0,0,1-3.554-.358,17.539,17.539,0,0,1-6.306-2.654A17.687,17.687,0,0,1,1.386,24.5a17.546,17.546,0,0,1-1.028-3.31,17.807,17.807,0,0,1,0-7.108A17.539,17.539,0,0,1,3.012,7.775a17.687,17.687,0,0,1,7.759-6.389A17.546,17.546,0,0,1,14.081.358a17.805,17.805,0,0,1,7.186.016,17.64,17.64,0,0,0,0,34.521A17.761,17.761,0,0,1,17.635,35.27Z" transform="translate(22.42 11.15)"/>
          </g>
        </g>
      </g>
    </g>
    <g data-type="innerShadowGroup">
      <path id="联合_5-2" data-name="联合 5" class="cls-5" d="M24.87,20.951A6.13,6.13,0,0,1,24.1,21H8.75c-.078,0-.156,0-.233,0s-.179,0-.27,0a8.358,8.358,0,0,1,0-16.714,8.172,8.172,0,0,1,1.847.21,8.227,8.227,0,0,1,15.56,3.647h0a6.429,6.429,0,0,1,0,12.857A6.323,6.323,0,0,1,24.87,20.951Z" transform="translate(532 909)"/>
      <g class="cls-7" transform="matrix(1, 0, 0, 1, 532, 876)">
        <path id="联合_5-3" data-name="联合 5" class="cls-5" d="M24.87,20.951A6.13,6.13,0,0,1,24.1,21H8.75c-.078,0-.156,0-.233,0s-.179,0-.27,0a8.358,8.358,0,0,1,0-16.714,8.172,8.172,0,0,1,1.847.21,8.227,8.227,0,0,1,15.56,3.647h0a6.429,6.429,0,0,1,0,12.857A6.323,6.323,0,0,1,24.87,20.951Z" transform="translate(0 33)"/>
      </g>
    </g>
    <g data-type="innerShadowGroup">
      <path id="联合_4-2" data-name="联合 4" class="cls-5" d="M10.094,16.5a8.171,8.171,0,0,1-1.847.21A8.3,8.3,0,0,1,0,8.357,8.3,8.3,0,0,1,8.247,0q.136,0,.27,0c.077,0,.155,0,.233,0H24.1a6.129,6.129,0,0,1,.774.049A6.323,6.323,0,0,1,25.656,0,6.387,6.387,0,0,1,32,6.429a6.387,6.387,0,0,1-6.344,6.429h0A8.228,8.228,0,0,1,10.094,16.5Z" transform="translate(612 917) rotate(180)"/>
      <g class="cls-6" transform="matrix(1, 0, 0, 1, 532, 876)">
        <path id="联合_4-3" data-name="联合 4" class="cls-5" d="M10.094,16.5a8.171,8.171,0,0,1-1.847.21A8.3,8.3,0,0,1,0,8.357,8.3,8.3,0,0,1,8.247,0q.136,0,.27,0c.077,0,.155,0,.233,0H24.1a6.129,6.129,0,0,1,.774.049A6.323,6.323,0,0,1,25.656,0,6.387,6.387,0,0,1,32,6.429a6.387,6.387,0,0,1-6.344,6.429h0A8.228,8.228,0,0,1,10.094,16.5Z" transform="translate(80 41) rotate(180)"/>
      </g>
    </g>
  </g>
</svg>
