<svg xmlns="http://www.w3.org/2000/svg" width="46" height="46" viewBox="0 0 46 46">
  <defs>
    <style>
      .cls-1 {
        fill: #b1b1b1;
      }

      .cls-2 {
        fill: #ffd939;
      }

      .cls-3 {
        fill: #4092fb;
      }
    </style>
  </defs>
  <g id="countyIcon" transform="translate(-90.353 -90.353)">
    <path id="路径_78" data-name="路径 78" class="cls-1" d="M133.068,93.638v39.429H93.639V93.638h39.429m1.643-3.286H92A1.648,1.648,0,0,0,90.353,92V134.71A1.648,1.648,0,0,0,92,136.353h42.714a1.648,1.648,0,0,0,1.643-1.643V92a1.648,1.648,0,0,0-1.643-1.643Z"/>
    <path id="路径_79" data-name="路径 79" class="cls-2" d="M215.723,214.095a1.635,1.635,0,1,1-1.635,1.635,1.64,1.64,0,0,1,1.635-1.635m0-3.271a4.906,4.906,0,1,0,4.906,4.906A4.9,4.9,0,0,0,215.723,210.824Zm-3.271,21.261a1.637,1.637,0,0,1-1.047-2.895l8.766-7.31a3.261,3.261,0,0,1,4.187,0l7.719,6.444,8.766-7.31a1.637,1.637,0,1,1,2.093,2.519l-8.766,7.31a3.261,3.261,0,0,1-4.187,0l-7.719-6.444-8.766,7.31a1.677,1.677,0,0,1-1.047.376Zm0,11.448a1.64,1.64,0,0,1-1.635-1.635v-6.542a1.635,1.635,0,0,1,3.271,0V241.9A1.64,1.64,0,0,1,212.452,243.532Z" transform="translate(-113.818 -113.825)"/>
    <path id="路径_80" data-name="路径 80" class="cls-3" d="M393.191,243.533a1.653,1.653,0,0,1-1.661-1.635V230.449a1.662,1.662,0,0,1,3.323,0V241.9A1.653,1.653,0,0,1,393.191,243.533Zm9.968,0A1.653,1.653,0,0,1,401.5,241.9v-6.542a1.662,1.662,0,0,1,3.323,0V241.9A1.653,1.653,0,0,1,403.159,243.533Zm9.968,0a1.653,1.653,0,0,1-1.661-1.635V230.449a1.662,1.662,0,0,1,3.323,0V241.9A1.653,1.653,0,0,1,413.128,243.533ZM411.466,219h-8.307a1.636,1.636,0,1,1,0-3.271h8.307a1.636,1.636,0,1,1,0,3.271Zm-13.291,0a2.536,2.536,0,0,1-.332-.033,1.069,1.069,0,0,1-.3-.1,1.265,1.265,0,0,1-.3-.147l-.249-.2a1.64,1.64,0,0,1,0-2.322,2.614,2.614,0,0,1,.249-.2,1.265,1.265,0,0,1,.3-.147,1.068,1.068,0,0,1,.3-.1,1.641,1.641,0,0,1,1.512,2.764A1.762,1.762,0,0,1,398.175,219Zm13.291-4.906h-3.323a1.636,1.636,0,1,1,0-3.271h3.323a1.636,1.636,0,1,1,0,3.271Z" transform="translate(-285.081 -113.825)"/>
  </g>
</svg>
