<svg xmlns="http://www.w3.org/2000/svg" xmlns:xlink="http://www.w3.org/1999/xlink" width="60" height="60" viewBox="0 0 60 60"><defs><style>.a,.c{fill:#fff;}.a{opacity:0;}.b{fill:#c3e0fd;}.d{filter:url(#d);}.e{filter:url(#a);}</style><filter id="a" x="0.283" y="8.201" width="47.715" height="29.876" filterUnits="userSpaceOnUse"><feOffset dy="3" input="SourceAlpha"/><feGaussianBlur stdDeviation="1" result="b"/><feFlood flood-opacity="0.161" result="c"/><feComposite operator="out" in="SourceGraphic" in2="b"/><feComposite operator="in" in="c"/><feComposite operator="in" in2="SourceGraphic"/></filter><filter id="d"><feOffset dy="3" input="SourceAlpha"/><feGaussianBlur stdDeviation="1" result="e"/><feFlood flood-opacity="0.161" result="f"/><feComposite operator="out" in="SourceGraphic" in2="e"/><feComposite operator="in" in="f"/><feComposite operator="in" in2="SourceGraphic"/></filter></defs><g transform="translate(0.283)"><rect class="a" width="60" height="60" transform="translate(-0.283)"/><g transform="translate(0 8.201)"><g data-type="innerShadowGroup"><path class="b" d="M36.975,29.869q-.1.006-.211.006H8.562q-.11,0-.218-.008-.18.008-.362.008a7.989,7.989,0,0,1-.948-15.92A7.986,7.986,0,0,1,14.972,6.8q.316,0,.626.024A10.376,10.376,0,0,1,35.66,9.242a10.385,10.385,0,1,1,1.68,20.634Q37.156,29.876,36.975,29.869Z" transform="translate(0 0)"/><g class="e" transform="matrix(1, 0, 0, 1, -0.28, -8.2)"><path class="c" d="M36.975,29.869q-.1.006-.211.006H8.562q-.11,0-.218-.008-.18.008-.362.008a7.989,7.989,0,0,1-.948-15.92A7.986,7.986,0,0,1,14.972,6.8q.316,0,.626.024A10.376,10.376,0,0,1,35.66,9.242a10.385,10.385,0,1,1,1.68,20.634Q37.156,29.876,36.975,29.869Z" transform="translate(0.28 8.2)"/></g></g><g data-type="innerShadowGroup"><path class="c" d="M12.617,20.433A10.343,10.343,0,1,1,10.309,0c.1,0,.2,0,.3,0s.171,0,.257,0H30.192a7.593,7.593,0,0,1,.927.057,7.958,7.958,0,1,1,.951,15.862h0a10.3,10.3,0,0,1-19.45,4.515Z" transform="translate(59.717 30.799) rotate(180)"/><g class="d" transform="matrix(1, 0, 0, 1, -0.28, -8.2)"><path class="c" d="M12.617,20.433A10.343,10.343,0,1,1,10.309,0c.1,0,.2,0,.3,0s.171,0,.257,0H30.192a7.593,7.593,0,0,1,.927.057,7.958,7.958,0,1,1,.951,15.862h0a10.3,10.3,0,0,1-19.45,4.515Z" transform="translate(60 39) rotate(180)"/></g></g></g></g></svg>