<svg xmlns="http://www.w3.org/2000/svg" xmlns:xlink="http://www.w3.org/1999/xlink" width="60" height="60" viewBox="0 0 60 60"><defs><style>.a,.c{fill:#fff;}.a{opacity:0;}.b{fill:#4092fb;}.d{fill:#ececec;}.e{fill:#cecece;}.f{filter:url(#s);}.g{filter:url(#p);}.h{filter:url(#m);}.i{filter:url(#j);}.j{filter:url(#g);}.k{filter:url(#d);}.l{filter:url(#a);}</style><filter id="a"><feOffset dy="3" input="SourceAlpha"/><feGaussianBlur stdDeviation="3" result="b"/><feFlood flood-opacity="0.302" result="c"/><feComposite operator="out" in="SourceGraphic" in2="b"/><feComposite operator="in" in="c"/><feComposite operator="in" in2="SourceGraphic"/></filter><filter id="d"><feOffset dy="3" input="SourceAlpha"/><feGaussianBlur stdDeviation="3" result="e"/><feFlood flood-opacity="0.302" result="f"/><feComposite operator="out" in="SourceGraphic" in2="e"/><feComposite operator="in" in="f"/><feComposite operator="in" in2="SourceGraphic"/></filter><filter id="g"><feOffset dy="3" input="SourceAlpha"/><feGaussianBlur stdDeviation="3" result="h"/><feFlood flood-opacity="0.302" result="i"/><feComposite operator="out" in="SourceGraphic" in2="h"/><feComposite operator="in" in="i"/><feComposite operator="in" in2="SourceGraphic"/></filter><filter id="j" x="0" y="8.201" width="47.715" height="29.876" filterUnits="userSpaceOnUse"><feOffset dy="3" input="SourceAlpha"/><feGaussianBlur stdDeviation="1" result="k"/><feFlood flood-opacity="0.161" result="l"/><feComposite operator="out" in="SourceGraphic" in2="k"/><feComposite operator="in" in="l"/><feComposite operator="in" in2="SourceGraphic"/></filter><filter id="m"><feOffset dy="3" input="SourceAlpha"/><feGaussianBlur stdDeviation="1" result="n"/><feFlood flood-opacity="0.161" result="o"/><feComposite operator="out" in="SourceGraphic" in2="n"/><feComposite operator="in" in="o"/><feComposite operator="in" in2="SourceGraphic"/></filter><filter id="p"><feOffset dy="3" input="SourceAlpha"/><feGaussianBlur stdDeviation="3" result="q"/><feFlood flood-opacity="0.302" result="r"/><feComposite operator="out" in="SourceGraphic" in2="q"/><feComposite operator="in" in="r"/><feComposite operator="in" in2="SourceGraphic"/></filter><filter id="s"><feOffset dy="3" input="SourceAlpha"/><feGaussianBlur stdDeviation="3" result="t"/><feFlood flood-opacity="0.302" result="u"/><feComposite operator="out" in="SourceGraphic" in2="t"/><feComposite operator="in" in="u"/><feComposite operator="in" in2="SourceGraphic"/></filter></defs><rect class="a" width="60" height="60"/><g transform="translate(0 8.201)"><g data-type="innerShadowGroup"><path class="b" d="M7.109,5.233A3.555,3.555,0,0,1,0,5.233C0,3.292,1.487,1.843,2.538.5A1.29,1.29,0,0,1,4.571.5C5.622,1.843,7.109,3.292,7.109,5.233Z" transform="matrix(0.996, 0.087, -0.087, 0.996, 42.87, 25.138)"/><g class="l" transform="matrix(1, 0, 0, 1, 0, -8.2)"><path class="c" d="M7.109,5.233A3.555,3.555,0,0,1,0,5.233C0,3.292,1.487,1.843,2.538.5A1.29,1.29,0,0,1,4.571.5C5.622,1.843,7.109,3.292,7.109,5.233Z" transform="matrix(1, 0.09, -0.09, 1, 42.87, 33.34)"/></g></g><g data-type="innerShadowGroup"><path class="b" d="M7.109,5.233A3.555,3.555,0,0,1,0,5.233C0,3.292,1.487,1.843,2.538.5A1.29,1.29,0,0,1,4.571.5C5.622,1.843,7.109,3.292,7.109,5.233Z" transform="translate(10.48 25.138) rotate(8)"/><g class="k" transform="matrix(1, 0, 0, 1, 0, -8.2)"><path class="c" d="M7.109,5.233A3.555,3.555,0,0,1,0,5.233C0,3.292,1.487,1.843,2.538.5A1.29,1.29,0,0,1,4.571.5C5.622,1.843,7.109,3.292,7.109,5.233Z" transform="translate(10.48 33.34) rotate(8)"/></g></g><g data-type="innerShadowGroup"><path class="b" d="M7.109,5.233A3.555,3.555,0,0,1,0,5.233C0,3.292,1.487,1.843,2.538.5A1.29,1.29,0,0,1,4.571.5C5.622,1.843,7.109,3.292,7.109,5.233Z" transform="translate(26.883 24.82) rotate(8)"/><g class="j" transform="matrix(1, 0, 0, 1, 0, -8.2)"><path class="c" d="M7.109,5.233A3.555,3.555,0,0,1,0,5.233C0,3.292,1.487,1.843,2.538.5A1.29,1.29,0,0,1,4.571.5C5.622,1.843,7.109,3.292,7.109,5.233Z" transform="translate(26.88 33.02) rotate(8)"/></g></g><g transform="translate(0 0)"><g data-type="innerShadowGroup"><path class="d" d="M36.975,29.869q-.1.006-.211.006H8.562q-.11,0-.218-.008-.18.008-.362.008a7.989,7.989,0,0,1-.948-15.92A7.986,7.986,0,0,1,14.972,6.8q.316,0,.626.024A10.376,10.376,0,0,1,35.66,9.242a10.385,10.385,0,1,1,1.68,20.634Q37.156,29.876,36.975,29.869Z" transform="translate(0 0)"/><g class="i" transform="matrix(1, 0, 0, 1, 0, -8.2)"><path class="c" d="M36.975,29.869q-.1.006-.211.006H8.562q-.11,0-.218-.008-.18.008-.362.008a7.989,7.989,0,0,1-.948-15.92A7.986,7.986,0,0,1,14.972,6.8q.316,0,.626.024A10.376,10.376,0,0,1,35.66,9.242a10.385,10.385,0,1,1,1.68,20.634Q37.156,29.876,36.975,29.869Z" transform="translate(0 8.2)"/></g></g><g data-type="innerShadowGroup"><path class="e" d="M12.617,20.433A10.343,10.343,0,1,1,10.309,0c.1,0,.2,0,.3,0s.171,0,.257,0H30.192a7.593,7.593,0,0,1,.927.057,7.958,7.958,0,1,1,.951,15.862h0a10.3,10.3,0,0,1-19.45,4.515Z" transform="translate(60 30.799) rotate(180)"/><g class="h" transform="matrix(1, 0, 0, 1, 0, -8.2)"><path class="c" d="M12.617,20.433A10.343,10.343,0,1,1,10.309,0c.1,0,.2,0,.3,0s.171,0,.257,0H30.192a7.593,7.593,0,0,1,.927.057,7.958,7.958,0,1,1,.951,15.862h0a10.3,10.3,0,0,1-19.45,4.515Z" transform="translate(60 39) rotate(180)"/></g></g></g><g data-type="innerShadowGroup"><path class="b" d="M7.109,5.233A3.555,3.555,0,0,1,0,5.233C0,3.292,1.487,1.843,2.538.5A1.29,1.29,0,0,1,4.571.5C5.622,1.843,7.109,3.292,7.109,5.233Z" transform="translate(35.145 33.55) rotate(8)"/><g class="g" transform="matrix(1, 0, 0, 1, 0, -8.2)"><path class="c" d="M7.109,5.233A3.555,3.555,0,0,1,0,5.233C0,3.292,1.487,1.843,2.538.5A1.29,1.29,0,0,1,4.571.5C5.622,1.843,7.109,3.292,7.109,5.233Z" transform="translate(35.15 41.75) rotate(8)"/></g></g><g data-type="innerShadowGroup"><path class="b" d="M7.109,5.233A3.555,3.555,0,0,1,0,5.233C0,3.292,1.487,1.843,2.538.5A1.29,1.29,0,0,1,4.571.5C5.622,1.843,7.109,3.292,7.109,5.233Z" transform="translate(17.936 33.55) rotate(8)"/><g class="f" transform="matrix(1, 0, 0, 1, 0, -8.2)"><path class="c" d="M7.109,5.233A3.555,3.555,0,0,1,0,5.233C0,3.292,1.487,1.843,2.538.5A1.29,1.29,0,0,1,4.571.5C5.622,1.843,7.109,3.292,7.109,5.233Z" transform="translate(17.94 41.75) rotate(8)"/></g></g></g></svg>