<svg xmlns="http://www.w3.org/2000/svg" width="49" height="62" viewBox="0 0 49 62">
  <defs>
    <style>
      .cls-1 {
        fill: #303030;
      }
    </style>
  </defs>
  <path id="location" class="cls-1" d="M27.524,60.607C34.07,52.812,49,33.921,49,23.31,49,10.441,38.026,0,24.5,0S0,10.441,0,23.31c0,10.611,14.93,29.5,21.476,37.3a3.979,3.979,0,0,0,6.048,0ZM24.5,31.08a7.983,7.983,0,0,1-8.167-7.77A7.983,7.983,0,0,1,24.5,15.54a7.983,7.983,0,0,1,8.167,7.77A7.983,7.983,0,0,1,24.5,31.08Z"/>
</svg>
