<svg xmlns="http://www.w3.org/2000/svg" width="48" height="48" viewBox="0 0 48 48">
  <defs>
    <style>
      .cls-1 {
        fill: #c3e0fd;
      }

      .cls-2 {
        fill: #fff;
      }
    </style>
  </defs>
  <g id="组_214" data-name="组 214" transform="translate(-555 -58)">
    <path id="路径_187" data-name="路径 187" class="cls-1" d="M8,0H40a8,8,0,0,1,8,8V40a8,8,0,0,1-8,8H8a8,8,0,0,1-8-8V8A8,8,0,0,1,8,0Z" transform="translate(555 58)"/>
    <path id="返回" class="cls-2" d="M165,150.349a19.8,19.8,0,0,0-9.314-6.5,22.662,22.662,0,0,0-5.333-1.018v-9.707a1.626,1.626,0,0,0-.6-1.44.932.932,0,0,0-1.269.172l-17.632,16.3a1.854,1.854,0,0,0-.464,1.226,1.58,1.58,0,0,0,.535,1.229l17.7,16.418a.928.928,0,0,0,1.2.172,1.721,1.721,0,0,0,.594-1.437V156.6c6.658.243,11.115,2.615,14.239,6.83a17.7,17.7,0,0,1,3.2,6.845,1.384,1.384,0,0,0,1.269,1.229h.129A1.441,1.441,0,0,0,170.389,170c.071-8.371-1.728-14.955-5.389-19.663v.012Z" transform="translate(428.609 -69.508)"/>
  </g>
</svg>
