<svg xmlns="http://www.w3.org/2000/svg" width="48" height="48" viewBox="0 0 48 48">
  <defs>
    <style>
      .cls-1 {
        fill: #4092fb;
      }

      .cls-2 {
        fill: #fff;
      }
    </style>
  </defs>
  <g id="signOut" transform="translate(-149 -398)">
    <rect id="矩形_21" data-name="矩形 21" class="cls-1" width="48" height="48" rx="8" transform="translate(149 398)"/>
    <path id="signOut-2" data-name="signOut" class="cls-2" d="M67.59,19.688Zm-17.836,18h0A16.338,16.338,0,0,1,43.623,6.28v.005a1.65,1.65,0,0,1,.558-.1,1.69,1.69,0,0,1,.557,3.278v0a12.82,12.82,0,1,0,10.033,0v0a1.69,1.69,0,0,1,.558-3.278,1.642,1.642,0,0,1,.557.1V6.28a16.338,16.338,0,0,1-6.13,31.409Zm0-17.438a1.68,1.68,0,0,1-1.672-1.687V8.579h0V5.168h0V3.376a1.672,1.672,0,1,1,3.344,0V18.563A1.68,1.68,0,0,1,49.754,20.251Z" transform="translate(122.41 402.312)"/>
  </g>
</svg>
