<svg xmlns="http://www.w3.org/2000/svg" xmlns:xlink="http://www.w3.org/1999/xlink" width="238.307" height="229" viewBox="0 0 238.307 229">
  <defs>
    <style>
      .cls-1, .cls-3 {
        fill: #fff;
      }

      .cls-1 {
        opacity: 0;
      }

      .cls-2 {
        fill: #4092fb;
      }

      .cls-4 {
        fill: #ececec;
      }

      .cls-5 {
        fill: #cecece;
      }

      .cls-6 {
        filter: url(#填色_水滴_水_油-5);
      }

      .cls-7 {
        filter: url(#填色_水滴_水_油-4);
      }

      .cls-8 {
        filter: url(#联合_6);
      }

      .cls-9 {
        filter: url(#联合_7-2);
      }

      .cls-10 {
        filter: url(#联合_7);
      }

      .cls-11 {
        filter: url(#填色_水滴_水_油-3);
      }

      .cls-12 {
        filter: url(#填色_水滴_水_油-2);
      }

      .cls-13 {
        filter: url(#填色_水滴_水_油);
      }
    </style>
    <filter id="填色_水滴_水_油">
      <feOffset dy="3" input="SourceAlpha"/>
      <feGaussianBlur stdDeviation="3" result="blur"/>
      <feFlood flood-opacity="0.302" result="color"/>
      <feComposite operator="out" in="SourceGraphic" in2="blur"/>
      <feComposite operator="in" in="color"/>
      <feComposite operator="in" in2="SourceGraphic"/>
    </filter>
    <filter id="填色_水滴_水_油-2">
      <feOffset dy="3" input="SourceAlpha"/>
      <feGaussianBlur stdDeviation="3" result="blur-2"/>
      <feFlood flood-opacity="0.302" result="color-2"/>
      <feComposite operator="out" in="SourceGraphic" in2="blur-2"/>
      <feComposite operator="in" in="color-2"/>
      <feComposite operator="in" in2="SourceGraphic"/>
    </filter>
    <filter id="填色_水滴_水_油-3">
      <feOffset dy="3" input="SourceAlpha"/>
      <feGaussianBlur stdDeviation="3" result="blur-3"/>
      <feFlood flood-opacity="0.302" result="color-3"/>
      <feComposite operator="out" in="SourceGraphic" in2="blur-3"/>
      <feComposite operator="in" in="color-3"/>
      <feComposite operator="in" in2="SourceGraphic"/>
    </filter>
    <filter id="联合_7" x="0" y="25.488" width="201.2" height="132.704" filterUnits="userSpaceOnUse">
      <feOffset dy="3" input="SourceAlpha"/>
      <feGaussianBlur stdDeviation="3" result="blur-4"/>
      <feFlood flood-opacity="0.161"/>
      <feComposite operator="in" in2="blur-4"/>
      <feComposite in="SourceGraphic"/>
    </filter>
    <filter id="联合_7-2" x="0" y="25.488" width="201.2" height="132.704" filterUnits="userSpaceOnUse">
      <feOffset dy="3" input="SourceAlpha"/>
      <feGaussianBlur stdDeviation="1" result="blur-5"/>
      <feFlood flood-opacity="0.161" result="color-4"/>
      <feComposite operator="out" in="SourceGraphic" in2="blur-5"/>
      <feComposite operator="in" in="color-4"/>
      <feComposite operator="in" in2="SourceGraphic"/>
    </filter>
    <filter id="联合_6">
      <feOffset dy="3" input="SourceAlpha"/>
      <feGaussianBlur stdDeviation="1" result="blur-6"/>
      <feFlood flood-opacity="0.161" result="color-5"/>
      <feComposite operator="out" in="SourceGraphic" in2="blur-6"/>
      <feComposite operator="in" in="color-5"/>
      <feComposite operator="in" in2="SourceGraphic"/>
    </filter>
    <filter id="填色_水滴_水_油-4">
      <feOffset dy="3" input="SourceAlpha"/>
      <feGaussianBlur stdDeviation="3" result="blur-7"/>
      <feFlood flood-opacity="0.302" result="color-6"/>
      <feComposite operator="out" in="SourceGraphic" in2="blur-7"/>
      <feComposite operator="in" in="color-6"/>
      <feComposite operator="in" in2="SourceGraphic"/>
    </filter>
    <filter id="填色_水滴_水_油-5">
      <feOffset dy="3" input="SourceAlpha"/>
      <feGaussianBlur stdDeviation="3" result="blur-8"/>
      <feFlood flood-opacity="0.302" result="color-7"/>
      <feComposite operator="out" in="SourceGraphic" in2="blur-8"/>
      <feComposite operator="in" in="color-7"/>
      <feComposite operator="in" in2="SourceGraphic"/>
    </filter>
  </defs>
  <g id="weatherDayIcon04" transform="translate(9)">
    <rect id="矩形_182" data-name="矩形 182" class="cls-1" width="229" height="229" transform="translate(0.307)"/>
    <g id="组_197" data-name="组 197" transform="translate(0.001 31.487)">
      <g data-type="innerShadowGroup">
        <path id="填色_水滴_水_油-6" data-name="填色,水滴,水,油" class="cls-2" d="M27.295,20.092A13.647,13.647,0,0,1,0,20.092C0,12.639,5.71,7.077,9.743,1.9a4.955,4.955,0,0,1,7.809,0C21.585,7.077,27.295,12.639,27.295,20.092Z" transform="matrix(0.996, 0.087, -0.087, 0.996, 164.596, 96.516)"/>
        <g class="cls-13" transform="matrix(1, 0, 0, 1, -9, -31.49)">
          <path id="填色_水滴_水_油-7" data-name="填色,水滴,水,油" class="cls-3" d="M27.295,20.092A13.647,13.647,0,0,1,0,20.092C0,12.639,5.71,7.077,9.743,1.9a4.955,4.955,0,0,1,7.809,0C21.585,7.077,27.295,12.639,27.295,20.092Z" transform="matrix(1, 0.09, -0.09, 1, 173.6, 128)"/>
        </g>
      </g>
      <g data-type="innerShadowGroup">
        <path id="填色_水滴_水_油-8" data-name="填色,水滴,水,油" class="cls-2" d="M27.295,20.092A13.647,13.647,0,0,1,0,20.092C0,12.639,5.71,7.077,9.743,1.9a4.955,4.955,0,0,1,7.809,0C21.585,7.077,27.295,12.639,27.295,20.092Z" transform="translate(40.239 96.515) rotate(8)"/>
        <g class="cls-12" transform="matrix(1, 0, 0, 1, -9, -31.49)">
          <path id="填色_水滴_水_油-9" data-name="填色,水滴,水,油" class="cls-3" d="M27.295,20.092A13.647,13.647,0,0,1,0,20.092C0,12.639,5.71,7.077,9.743,1.9a4.955,4.955,0,0,1,7.809,0C21.585,7.077,27.295,12.639,27.295,20.092Z" transform="translate(49.24 128) rotate(8)"/>
        </g>
      </g>
      <g data-type="innerShadowGroup">
        <path id="填色_水滴_水_油-10" data-name="填色,水滴,水,油" class="cls-2" d="M27.295,20.092A13.647,13.647,0,0,1,0,20.092C0,12.639,5.71,7.077,9.743,1.9a4.955,4.955,0,0,1,7.809,0C21.585,7.077,27.295,12.639,27.295,20.092Z" transform="translate(103.214 95.296) rotate(8)"/>
        <g class="cls-11" transform="matrix(1, 0, 0, 1, -9, -31.49)">
          <path id="填色_水滴_水_油-11" data-name="填色,水滴,水,油" class="cls-3" d="M27.295,20.092A13.647,13.647,0,0,1,0,20.092C0,12.639,5.71,7.077,9.743,1.9a4.955,4.955,0,0,1,7.809,0C21.585,7.077,27.295,12.639,27.295,20.092Z" transform="translate(112.21 126.78) rotate(8)"/>
        </g>
      </g>
      <g id="组_12" data-name="组 12" transform="translate(0 0)">
        <g data-type="innerShadowGroup">
          <g class="cls-10" transform="matrix(1, 0, 0, 1, -9, -31.49)">
            <path id="联合_7-3" data-name="联合 7" class="cls-4" d="M26.733,114.705a4.976,4.976,0,0,1-2.507-.674A30.68,30.68,0,0,1,27,53.579,30.656,30.656,0,0,1,57.483,26.1q1.213,0,2.4.093a39.837,39.837,0,0,1,77.028,9.286,39.877,39.877,0,0,1,14.692,78.366,5.971,5.971,0,0,1-3.089.856Z" transform="translate(9 31.49)"/>
          </g>
          <g class="cls-9" transform="matrix(1, 0, 0, 1, -9, -31.49)">
            <path id="联合_7-4" data-name="联合 7" class="cls-3" d="M26.733,114.705a4.976,4.976,0,0,1-2.507-.674A30.68,30.68,0,0,1,27,53.579,30.656,30.656,0,0,1,57.483,26.1q1.213,0,2.4.093a39.837,39.837,0,0,1,77.028,9.286,39.877,39.877,0,0,1,14.692,78.366,5.971,5.971,0,0,1-3.089.856Z" transform="translate(9 31.49)"/>
          </g>
        </g>
        <g data-type="innerShadowGroup">
          <path id="联合_6-2" data-name="联合 6" class="cls-5" d="M48.893,78.59A39.995,39.995,0,0,1,0,39.8,39.87,39.87,0,0,1,39.945,0c.351,0,.7,0,1.05.013Q41.438,0,41.885,0h75.326a29.217,29.217,0,0,1,3.473.207A31.156,31.156,0,0,1,124.273,0a30.612,30.612,0,1,1,0,61.223h-.013A39.98,39.98,0,0,1,48.893,78.59Z" transform="translate(229.306 118.512) rotate(180)"/>
          <g class="cls-8" transform="matrix(1, 0, 0, 1, -9, -31.49)">
            <path id="联合_6-3" data-name="联合 6" class="cls-3" d="M48.893,78.59A39.995,39.995,0,0,1,0,39.8,39.87,39.87,0,0,1,39.945,0c.351,0,.7,0,1.05.013Q41.438,0,41.885,0h75.326a29.217,29.217,0,0,1,3.473.207A31.156,31.156,0,0,1,124.273,0a30.612,30.612,0,1,1,0,61.223h-.013A39.98,39.98,0,0,1,48.893,78.59Z" transform="translate(238.31 150) rotate(180)"/>
          </g>
        </g>
      </g>
      <g data-type="innerShadowGroup">
        <path id="填色_水滴_水_油-12" data-name="填色,水滴,水,油" class="cls-2" d="M27.295,20.092A13.647,13.647,0,0,1,0,20.092C0,12.639,5.71,7.077,9.743,1.9a4.955,4.955,0,0,1,7.809,0C21.585,7.077,27.295,12.639,27.295,20.092Z" transform="translate(134.939 128.815) rotate(8)"/>
        <g class="cls-7" transform="matrix(1, 0, 0, 1, -9, -31.49)">
          <path id="填色_水滴_水_油-13" data-name="填色,水滴,水,油" class="cls-3" d="M27.295,20.092A13.647,13.647,0,0,1,0,20.092C0,12.639,5.71,7.077,9.743,1.9a4.955,4.955,0,0,1,7.809,0C21.585,7.077,27.295,12.639,27.295,20.092Z" transform="translate(143.94 160.3) rotate(8)"/>
        </g>
      </g>
      <g data-type="innerShadowGroup">
        <path id="填色_水滴_水_油-14" data-name="填色,水滴,水,油" class="cls-2" d="M27.295,20.092A13.647,13.647,0,0,1,0,20.092C0,12.639,5.71,7.077,9.743,1.9a4.955,4.955,0,0,1,7.809,0C21.585,7.077,27.295,12.639,27.295,20.092Z" transform="translate(68.864 128.815) rotate(8)"/>
        <g class="cls-6" transform="matrix(1, 0, 0, 1, -9, -31.49)">
          <path id="填色_水滴_水_油-15" data-name="填色,水滴,水,油" class="cls-3" d="M27.295,20.092A13.647,13.647,0,0,1,0,20.092C0,12.639,5.71,7.077,9.743,1.9a4.955,4.955,0,0,1,7.809,0C21.585,7.077,27.295,12.639,27.295,20.092Z" transform="translate(77.86 160.3) rotate(8)"/>
        </g>
      </g>
    </g>
  </g>
</svg>
