<svg xmlns="http://www.w3.org/2000/svg" xmlns:xlink="http://www.w3.org/1999/xlink" width="60.126" height="50" viewBox="0 0 60.126 50"><defs><style>.a,.c{fill:#fff;}.a{opacity:0;}.b{fill:#c3e0fd;}.d{filter:url(#f);}.e{filter:url(#c);}.f{filter:url(#a);}</style><filter id="a" x="0" y="0.901" width="58.152" height="43.14" filterUnits="userSpaceOnUse"><feOffset dy="3" input="SourceAlpha"/><feGaussianBlur stdDeviation="3" result="b"/><feFlood flood-opacity="0.161"/><feComposite operator="in" in2="b"/><feComposite in="SourceGraphic"/></filter><filter id="c" x="0" y="0.901" width="58.152" height="43.14" filterUnits="userSpaceOnUse"><feOffset dy="3" input="SourceAlpha"/><feGaussianBlur stdDeviation="1" result="d"/><feFlood flood-opacity="0.161" result="e"/><feComposite operator="out" in="SourceGraphic" in2="d"/><feComposite operator="in" in="e"/><feComposite operator="in" in2="SourceGraphic"/></filter><filter id="f"><feOffset dy="3" input="SourceAlpha"/><feGaussianBlur stdDeviation="1" result="g"/><feFlood flood-opacity="0.161" result="h"/><feComposite operator="out" in="SourceGraphic" in2="g"/><feComposite operator="in" in="h"/><feComposite operator="in" in2="SourceGraphic"/></filter></defs><g transform="translate(8.321)"><rect class="a" width="52" height="50" transform="translate(-0.196)"/><g transform="translate(0.679 6.901)"><g data-type="innerShadowGroup"><g class="f" transform="matrix(1, 0, 0, 1, -9, -6.9)"><path class="b" d="M31.113,25.134c-.059,0-.118.005-.178.005H7.2q-.093,0-.184-.007-.152.007-.305.007a6.722,6.722,0,0,1-.8-13.4A6.719,6.719,0,0,1,12.6,5.721q.266,0,.527.02A8.731,8.731,0,0,1,30.008,7.777,8.738,8.738,0,1,1,31.421,25.14C31.318,25.14,31.216,25.138,31.113,25.134Z" transform="translate(9 6.9)"/></g><g class="e" transform="matrix(1, 0, 0, 1, -9, -6.9)"><path class="c" d="M31.113,25.134c-.059,0-.118.005-.178.005H7.2q-.093,0-.184-.007-.152.007-.305.007a6.722,6.722,0,0,1-.8-13.4A6.719,6.719,0,0,1,12.6,5.721q.266,0,.527.02A8.731,8.731,0,0,1,30.008,7.777,8.738,8.738,0,1,1,31.421,25.14C31.318,25.14,31.216,25.138,31.113,25.134Z" transform="translate(9 6.9)"/></g></g><g data-type="innerShadowGroup"><path class="c" d="M10.725,17.29A8.757,8.757,0,1,1,8.762,0c.08,0,.16,0,.239,0s.136,0,.2,0H25.692a6.42,6.42,0,0,1,.772.046A6.821,6.821,0,0,1,27.26,0a6.735,6.735,0,1,1,0,13.469h0A8.765,8.765,0,0,1,10.725,17.29Z" transform="translate(51.126 26.099) rotate(180)"/><g class="d" transform="matrix(1, 0, 0, 1, -9, -6.9)"><path class="c" d="M10.725,17.29A8.757,8.757,0,1,1,8.762,0c.08,0,.16,0,.239,0s.136,0,.2,0H25.692a6.42,6.42,0,0,1,.772.046A6.821,6.821,0,0,1,27.26,0a6.735,6.735,0,1,1,0,13.469h0A8.765,8.765,0,0,1,10.725,17.29Z" transform="translate(60.13 33) rotate(180)"/></g></g></g></g></svg>