<?xml version="1.0" standalone="no"?><!DOCTYPE svg PUBLIC "-//W3C//DTD SVG 1.1//EN" "http://www.w3.org/Graphics/SVG/1.1/DTD/svg11.dtd"><svg t="1667403415204" class="icon" viewBox="0 0 1024 1024" version="1.1" xmlns="http://www.w3.org/2000/svg" p-id="3590" xmlns:xlink="http://www.w3.org/1999/xlink" width="48" height="48"><path d="M512 128C333.504 128 183.744 250.624 140.992 416H207.04C247.872 286.24 368.96 192 512 192c176.512 0 320 143.488 320 320s-143.488 320-320 320c-143.008 0-264.128-94.24-304.992-224H140.992c42.752 165.376 192.512 288 371.008 288 211.744 0 384-172.256 384-384S723.744 128 512 128z m-20.992 232.992l-46.016 46.016L517.984 480H128v64h390.016l-73.024 72.992 46.016 46.016 128-128L640.96 512l-21.984-23.008z" p-id="3591" fill="#ffffff"></path></svg>