<svg id="weatherDayIcon01" xmlns="http://www.w3.org/2000/svg" xmlns:xlink="http://www.w3.org/1999/xlink" width="229" height="229" viewBox="0 0 229 229">
  <defs>
    <style>
      .cls-1, .cls-3 {
        fill: #fff;
      }

      .cls-1 {
        opacity: 0;
      }

      .cls-2 {
        fill: #ffe83e;
      }

      .cls-4 {
        fill: #ffd939;
      }

      .cls-5 {
        fill: #ffc23b;
      }

      .cls-6 {
        filter: url(#联合_4);
      }

      .cls-7 {
        filter: url(#联合_5);
      }

      .cls-8 {
        filter: url(#减去_1);
      }

      .cls-9 {
        filter: url(#椭圆_3);
      }

      .cls-10 {
        filter: url(#多边形_1);
      }
    </style>
    <filter id="多边形_1" x="31" y="31" width="167" height="167" filterUnits="userSpaceOnUse">
      <feOffset dy="3" input="SourceAlpha"/>
      <feGaussianBlur stdDeviation="3" result="blur"/>
      <feFlood flood-opacity="0.161" result="color"/>
      <feComposite operator="out" in="SourceGraphic" in2="blur"/>
      <feComposite operator="in" in="color"/>
      <feComposite operator="in" in2="SourceGraphic"/>
    </filter>
    <filter id="椭圆_3" x="64.142" y="63.376" width="101.172" height="101.172" filterUnits="userSpaceOnUse">
      <feOffset dy="3" input="SourceAlpha"/>
      <feGaussianBlur stdDeviation="3" result="blur-2"/>
      <feFlood flood-opacity="0.161" result="color-2"/>
      <feComposite operator="out" in="SourceGraphic" in2="blur-2"/>
      <feComposite operator="in" in="color-2"/>
      <feComposite operator="in" in2="SourceGraphic"/>
    </filter>
    <filter id="减去_1" x="64.273" y="63.448" width="60.98" height="101.134" filterUnits="userSpaceOnUse">
      <feOffset dy="3" input="SourceAlpha"/>
      <feGaussianBlur stdDeviation="3" result="blur-3"/>
      <feFlood flood-opacity="0.161" result="color-3"/>
      <feComposite operator="out" in="SourceGraphic" in2="blur-3"/>
      <feComposite operator="in" in="color-3"/>
      <feComposite operator="in" in2="SourceGraphic"/>
    </filter>
    <filter id="联合_5">
      <feOffset dy="3" input="SourceAlpha"/>
      <feGaussianBlur stdDeviation="1" result="blur-4"/>
      <feFlood flood-opacity="0.161" result="color-4"/>
      <feComposite operator="out" in="SourceGraphic" in2="blur-4"/>
      <feComposite operator="in" in="color-4"/>
      <feComposite operator="in" in2="SourceGraphic"/>
    </filter>
    <filter id="联合_4">
      <feOffset dy="3" input="SourceAlpha"/>
      <feGaussianBlur stdDeviation="1" result="blur-5"/>
      <feFlood flood-opacity="0.161" result="color-5"/>
      <feComposite operator="out" in="SourceGraphic" in2="blur-5"/>
      <feComposite operator="in" in="color-5"/>
      <feComposite operator="in" in2="SourceGraphic"/>
    </filter>
  </defs>
  <rect id="矩形_179" data-name="矩形 179" class="cls-1" width="229" height="229"/>
  <g id="组_192" data-name="组 192" transform="translate(0 31.487)">
    <g id="组_15" data-name="组 15" transform="translate(31.487 0)">
      <g data-type="innerShadowGroup">
        <path id="多边形_1-2" data-name="多边形 1" class="cls-2" d="M107.038,8.536a8,8,0,0,1,12.826,5.313l3,23.372a8,8,0,0,0,6.917,6.917l23.372,3a8,8,0,0,1,5.313,12.826L144.059,78.609a8,8,0,0,0,0,9.782l14.406,18.647a8,8,0,0,1-5.313,12.826l-23.372,3a8,8,0,0,0-6.917,6.917l-3,23.372a8,8,0,0,1-12.826,5.313L88.391,144.059a8,8,0,0,0-9.782,0L59.962,158.464a8,8,0,0,1-12.826-5.313l-3-23.372a8,8,0,0,0-6.917-6.917l-23.372-3a8,8,0,0,1-5.313-12.826L22.942,88.391a8,8,0,0,0,0-9.782L8.536,59.962a8,8,0,0,1,5.313-12.826l23.372-3a8,8,0,0,0,6.917-6.917l3-23.372A8,8,0,0,1,59.962,8.536L78.609,22.942a8,8,0,0,0,9.782,0Z" transform="translate(-0.487 -0.488)"/>
        <g class="cls-10" transform="matrix(1, 0, 0, 1, -31.49, -31.49)">
          <path id="多边形_1-3" data-name="多边形 1" class="cls-3" d="M107.038,8.536a8,8,0,0,1,12.826,5.313l3,23.372a8,8,0,0,0,6.917,6.917l23.372,3a8,8,0,0,1,5.313,12.826L144.059,78.609a8,8,0,0,0,0,9.782l14.406,18.647a8,8,0,0,1-5.313,12.826l-23.372,3a8,8,0,0,0-6.917,6.917l-3,23.372a8,8,0,0,1-12.826,5.313L88.391,144.059a8,8,0,0,0-9.782,0L59.962,158.464a8,8,0,0,1-12.826-5.313l-3-23.372a8,8,0,0,0-6.917-6.917l-23.372-3a8,8,0,0,1-5.313-12.826L22.942,88.391a8,8,0,0,0,0-9.782L8.536,59.962a8,8,0,0,1,5.313-12.826l23.372-3a8,8,0,0,0,6.917-6.917l3-23.372A8,8,0,0,1,59.962,8.536L78.609,22.942a8,8,0,0,0,9.782,0Z" transform="translate(31 31)"/>
        </g>
      </g>
      <g id="组_2" data-name="组 2" transform="translate(32.655 31.889)">
        <g data-type="innerShadowGroup">
          <circle id="椭圆_3-2" data-name="椭圆 3" class="cls-4" cx="50.586" cy="50.586" r="50.586" transform="translate(0 0)"/>
          <g class="cls-9" transform="matrix(1, 0, 0, 1, -64.14, -63.38)">
            <circle id="椭圆_3-3" data-name="椭圆 3" class="cls-3" cx="50.586" cy="50.586" r="50.586" transform="translate(64.14 63.38)"/>
          </g>
        </g>
        <g data-type="innerShadowGroup">
          <path id="减去_1-2" data-name="减去 1" class="cls-5" d="M50.567,101.134a50.94,50.94,0,0,1-10.191-1.027A50.291,50.291,0,0,1,22.295,92.5,50.715,50.715,0,0,1,3.974,70.25a50.312,50.312,0,0,1-2.946-9.492,51.06,51.06,0,0,1,0-20.382A50.29,50.29,0,0,1,8.636,22.295,50.715,50.715,0,0,1,30.884,3.974a50.312,50.312,0,0,1,9.492-2.946,51.055,51.055,0,0,1,20.6.046,50.58,50.58,0,0,0,0,98.987A50.928,50.928,0,0,1,50.567,101.134Z" transform="translate(0.131 0.071)"/>
          <g class="cls-8" transform="matrix(1, 0, 0, 1, -64.14, -63.38)">
            <path id="减去_1-3" data-name="减去 1" class="cls-3" d="M50.567,101.134a50.94,50.94,0,0,1-10.191-1.027A50.291,50.291,0,0,1,22.295,92.5,50.715,50.715,0,0,1,3.974,70.25a50.312,50.312,0,0,1-2.946-9.492,51.06,51.06,0,0,1,0-20.382A50.29,50.29,0,0,1,8.636,22.295,50.715,50.715,0,0,1,30.884,3.974a50.312,50.312,0,0,1,9.492-2.946,51.055,51.055,0,0,1,20.6.046,50.58,50.58,0,0,0,0,98.987A50.928,50.928,0,0,1,50.567,101.134Z" transform="translate(64.27 63.45)"/>
          </g>
        </g>
      </g>
    </g>
    <g data-type="innerShadowGroup">
      <path id="联合_5-2" data-name="联合 5" class="cls-1" d="M72.412,59.875A17.527,17.527,0,0,1,70.328,60h-45.2q-.268,0-.533-.008-.314.008-.63.008a23.877,23.877,0,1,1,5.369-47.153A23.988,23.988,0,0,1,74.556,23.265h.008a18.367,18.367,0,1,1,0,36.734A18.688,18.688,0,0,1,72.412,59.875Z" transform="translate(0 94.512)"/>
      <g class="cls-7" transform="matrix(1, 0, 0, 1, 0, -31.49)">
        <path id="联合_5-3" data-name="联合 5" class="cls-1" d="M72.412,59.875A17.527,17.527,0,0,1,70.328,60h-45.2q-.268,0-.533-.008-.314.008-.63.008a23.877,23.877,0,1,1,5.369-47.153A23.988,23.988,0,0,1,74.556,23.265h.008a18.367,18.367,0,1,1,0,36.734A18.688,18.688,0,0,1,72.412,59.875Z" transform="translate(0 126)"/>
      </g>
    </g>
    <g data-type="innerShadowGroup">
      <path id="联合_4-2" data-name="联合 4" class="cls-1" d="M29.336,47.153A24,24,0,0,1,0,23.878,23.923,23.923,0,0,1,23.967,0q.316,0,.63.008Q24.863,0,25.131,0h45.2a17.524,17.524,0,0,1,2.084.124A18.689,18.689,0,0,1,74.564,0a18.367,18.367,0,1,1,0,36.734h-.008A23.988,23.988,0,0,1,29.336,47.153Z" transform="translate(229 117.512) rotate(180)"/>
      <g class="cls-6" transform="matrix(1, 0, 0, 1, 0, -31.49)">
        <path id="联合_4-3" data-name="联合 4" class="cls-1" d="M29.336,47.153A24,24,0,0,1,0,23.878,23.923,23.923,0,0,1,23.967,0q.316,0,.63.008Q24.863,0,25.131,0h45.2a17.524,17.524,0,0,1,2.084.124A18.689,18.689,0,0,1,74.564,0a18.367,18.367,0,1,1,0,36.734h-.008A23.988,23.988,0,0,1,29.336,47.153Z" transform="translate(229 149) rotate(180)"/>
      </g>
    </g>
  </g>
</svg>
