<svg xmlns="http://www.w3.org/2000/svg" xmlns:xlink="http://www.w3.org/1999/xlink" width="237.538" height="229" viewBox="0 0 237.538 229">
  <defs>
    <style>
      .cls-1, .cls-3 {
        fill: #fff;
      }

      .cls-1 {
        opacity: 0;
      }

      .cls-2 {
        fill: #c3e0fd;
      }

      .cls-4 {
        filter: url(#联合_6);
      }

      .cls-5 {
        filter: url(#联合_7-2);
      }

      .cls-6 {
        filter: url(#联合_7);
      }
    </style>
    <filter id="联合_7" x="0" y="25.488" width="201.2" height="132.704" filterUnits="userSpaceOnUse">
      <feOffset dy="3" input="SourceAlpha"/>
      <feGaussianBlur stdDeviation="3" result="blur"/>
      <feFlood flood-opacity="0.161"/>
      <feComposite operator="in" in2="blur"/>
      <feComposite in="SourceGraphic"/>
    </filter>
    <filter id="联合_7-2" x="0" y="25.488" width="201.2" height="132.704" filterUnits="userSpaceOnUse">
      <feOffset dy="3" input="SourceAlpha"/>
      <feGaussianBlur stdDeviation="1" result="blur-2"/>
      <feFlood flood-opacity="0.161" result="color"/>
      <feComposite operator="out" in="SourceGraphic" in2="blur-2"/>
      <feComposite operator="in" in="color"/>
      <feComposite operator="in" in2="SourceGraphic"/>
    </filter>
    <filter id="联合_6">
      <feOffset dy="3" input="SourceAlpha"/>
      <feGaussianBlur stdDeviation="1" result="blur-3"/>
      <feFlood flood-opacity="0.161" result="color-2"/>
      <feComposite operator="out" in="SourceGraphic" in2="blur-3"/>
      <feComposite operator="in" in="color-2"/>
      <feComposite operator="in" in2="SourceGraphic"/>
    </filter>
  </defs>
  <g id="weatherDayIcon03" transform="translate(9.001)">
    <rect id="矩形_181" data-name="矩形 181" class="cls-1" width="229" height="229" transform="translate(-0.463)"/>
    <g id="组_196" data-name="组 196" transform="translate(0 31.487)">
      <g data-type="innerShadowGroup">
        <g class="cls-6" transform="matrix(1, 0, 0, 1, -9, -31.49)">
          <path id="联合_7-3" data-name="联合 7" class="cls-2" d="M26.733,114.705a4.976,4.976,0,0,1-2.507-.674A30.68,30.68,0,0,1,27,53.579,30.656,30.656,0,0,1,57.483,26.1q1.213,0,2.4.093a39.837,39.837,0,0,1,77.028,9.286,39.877,39.877,0,0,1,14.692,78.366,5.971,5.971,0,0,1-3.089.856Z" transform="translate(9 31.49)"/>
        </g>
        <g class="cls-5" transform="matrix(1, 0, 0, 1, -9, -31.49)">
          <path id="联合_7-4" data-name="联合 7" class="cls-3" d="M26.733,114.705a4.976,4.976,0,0,1-2.507-.674A30.68,30.68,0,0,1,27,53.579,30.656,30.656,0,0,1,57.483,26.1q1.213,0,2.4.093a39.837,39.837,0,0,1,77.028,9.286,39.877,39.877,0,0,1,14.692,78.366,5.971,5.971,0,0,1-3.089.856Z" transform="translate(9 31.49)"/>
        </g>
      </g>
      <g data-type="innerShadowGroup">
        <path id="联合_6-2" data-name="联合 6" class="cls-3" d="M48.893,78.59A39.995,39.995,0,0,1,0,39.8,39.87,39.87,0,0,1,39.945,0c.351,0,.7,0,1.05.013Q41.438,0,41.885,0h75.326a29.217,29.217,0,0,1,3.473.207A31.156,31.156,0,0,1,124.273,0a30.612,30.612,0,1,1,0,61.223h-.013A39.98,39.98,0,0,1,48.893,78.59Z" transform="translate(228.537 118.512) rotate(180)"/>
        <g class="cls-4" transform="matrix(1, 0, 0, 1, -9, -31.49)">
          <path id="联合_6-3" data-name="联合 6" class="cls-3" d="M48.893,78.59A39.995,39.995,0,0,1,0,39.8,39.87,39.87,0,0,1,39.945,0c.351,0,.7,0,1.05.013Q41.438,0,41.885,0h75.326a29.217,29.217,0,0,1,3.473.207A31.156,31.156,0,0,1,124.273,0a30.612,30.612,0,1,1,0,61.223h-.013A39.98,39.98,0,0,1,48.893,78.59Z" transform="translate(237.54 150) rotate(180)"/>
        </g>
      </g>
    </g>
  </g>
</svg>
